<svg width="274" height="124" viewBox="0 0 274 124" fill="none" xmlns="http://www.w3.org/2000/svg">
<path d="M30 1V121" stroke="#A4A4A4" stroke-linecap="round"/>
<path d="M67.3474 1C67.3474 9.62609 68.1221 25.9043 69.4953 37.5739C70.523 46.3072 69.6948 62.9826 69.5012 71.987C69.2263 84.7668 67.7465 90.5478 67.1537 101.97C66.5728 105.33 65.7864 107.078 65.1995 110.391C65 112.843 65 116.861 65 121" stroke="#A4A4A4" stroke-linecap="round"/>
<path d="M103 3C103 5.04706 103.66 9.15883 104.165 36.1279C104.349 45.944 105.66 52.3941 106.83 59.1441C108.498 68.7658 108 76.4824 108.83 84C109 89.1176 109.33 92.9912 109.83 98.9735C110 104.082 110 113.4 110 123" stroke="#A4A4A4" stroke-linecap="round"/>
<path d="M2.52563 41C3.19118 41 20.8382 41 47.5559 41.165C62.3477 41.2563 71.0769 42.66 86.1626 43.165C99.5945 44 115.457 44.33 117.801 44.83C119.147 45 120.811 45 122.526 45" stroke="#A4A4A4" stroke-linecap="round"/>
<path d="M1 85C9.12459 85 26.2197 84.34 31.7967 83.17C38.2496 81.8163 43.5902 82 50.1557 81.005C57.3583 79.9135 64.5803 79.34 69.8328 78.835C75.1255 78.3261 79.6688 77.34 98.4656 76.835C102.626 76.67 103.925 76.34 107.352 76.17C110.78 76 116.298 76 121 76" stroke="#A4A4A4" stroke-linecap="round"/>
<path d="M41.9544 92.6848C41.661 92.7214 40.267 93.8186 39.5013 94.7863C38.9617 95.4684 38.5973 96.3365 38.3753 96.9078C38.1465 97.4966 38.006 97.9984 37.7674 98.7856C37.1973 100.667 37.0826 102.205 37.0461 102.756C36.9946 103.533 36.8246 105.477 36.8058 108.02C36.7878 110.446 37.4126 111.392 37.8743 112.169C38.1093 112.565 38.5929 113.018 39.6386 113.844C40.3633 114.417 41.5978 115.146 42.5478 115.687C45.0498 117.113 46.0489 117.117 46.6025 117.173C47.3419 117.247 48.2987 117.338 50.398 117.358C51.2588 117.366 52.8649 116.827 54.2046 116.178C54.9072 115.838 55.4226 115.274 55.9956 114.813C56.5467 114.369 56.8996 113.762 58.1325 111.445C59.5372 108.805 59.7053 108.004 60.0563 106.88C60.2299 106.324 60.2235 105.79 60.3154 105.217C60.3891 104.757 60.4449 101.901 60.2246 100.051C60.1079 99.0705 59.7075 98.3715 59.413 97.7255C58.9937 96.8057 58.3811 96.2678 58.0102 95.7867C57.6266 95.2892 57.0878 94.7908 56.5719 94.3473C56.0276 93.8795 55.4647 93.6459 54.9293 93.2767C54.4933 92.9759 53.806 92.5763 53.1395 92.1694C52.4822 91.7682 50.7856 91.5798 49.7077 91.2648C48.9805 91.0523 48.1592 91.024 47.4191 90.9138C46.86 90.8306 46.2017 90.7295 45.7206 90.6736C45.4997 90.6188 44.656 90.5811 43.494 90.6359C43.0627 90.6907 42.9531 90.8004 42.6187 91.024" stroke="#E8B1F4" stroke-linecap="round"/>
<path d="M44.2697 92.4352C43.9794 92.83 43.3939 93.8421 42.7703 94.8235C42.4103 95.39 42.2231 95.8631 41.9855 96.4972C41.1675 98.6792 40.947 98.8947 40.8804 98.9485C40.7582 99.0473 41.3674 98.1035 42.848 96.5423C43.8416 95.4946 45.4867 94.0862 46.3533 93.3141C47.29 92.4796 47.4591 92.3826 47.4998 92.3555C47.5381 92.33 47.3036 92.4863 45.6431 94.554C43.9825 96.6216 40.8242 100.648 38.9208 103.17C37.0175 105.692 36.4648 106.587 36.1406 107.14C35.7156 107.865 35.5771 108.199 35.5101 108.319C35.5021 108.334 35.6273 108.15 37.3397 106.437C39.052 104.724 42.3683 101.46 44.1293 99.7133C45.8903 97.9663 45.9956 97.8347 46.234 97.6222C47.278 96.6917 47.6704 96.3449 48.3348 95.6813C48.5653 95.4511 48.6291 95.2275 48.7352 95.0684C48.7886 94.9882 48.8413 94.9093 46.7628 97.7242C44.6844 100.539 40.4733 106.251 38.2776 109.232C36.0819 112.214 36.0293 112.293 38.5552 109.412C41.081 106.531 46.187 100.688 48.8568 97.6126C51.5266 94.5368 51.6056 94.4052 51.6989 94.2848C52.0467 93.8359 52.4287 93.2631 52.723 92.8352C52.7776 92.7558 52.829 92.6761 52.8035 92.6881C52.778 92.7 52.6727 92.8053 50.8156 95.5836C48.9585 98.3619 45.3527 103.81 43.4689 106.669C41.5208 109.626 41.4256 109.848 41.3985 109.915C41.3814 109.957 41.5293 109.693 42.9916 107.848C44.4539 106.002 47.2701 102.502 48.8393 100.58C50.6194 98.4003 50.9683 98.0724 51.1801 97.8207C51.708 97.1934 52.0044 96.9558 52.2839 96.6372C52.4997 96.3912 52.723 96.1846 52.8031 96.1307C52.824 96.1167 52.7254 96.2874 50.6581 99.5794C48.5908 102.871 44.5376 109.32 42.4102 112.694C40.2827 116.068 40.2037 116.174 40.1499 116.267C40.096 116.361 40.0697 116.44 40.0825 116.402C40.1479 116.206 40.3074 115.911 40.5195 115.62C40.6327 115.464 40.7317 115.276 43.0231 112.351C45.3145 109.427 49.7888 103.769 52.1069 100.814C54.425 97.8594 54.4513 97.7805 54.5043 97.6872C54.6221 97.4798 54.744 97.3011 54.7707 97.221C54.7711 97.2198 54.7448 97.2987 53.0994 100.103C51.4541 102.907 48.1905 108.434 46.2197 111.979C44.2489 115.524 43.6699 116.919 43.3716 117.703C43.0733 118.487 43.0733 118.619 44.3367 116.726C45.6 114.833 48.1267 110.911 49.6915 108.549C51.2563 106.187 51.7827 105.502 52.3433 104.821C53.4607 103.463 54.1323 102.725 54.2515 102.565C54.6981 101.969 55.4068 101.025 55.6209 100.651C55.6687 100.568 55.7529 100.492 55.7409 100.517C55.6568 100.694 55.4099 100.915 54.9478 101.535C54.5734 102.037 53.9855 102.971 52.6472 105.433C51.3089 107.894 49.256 111.869 48.1326 114.1C46.8345 116.679 46.6631 117.211 46.5172 117.49C46.4423 117.633 46.3975 117.794 46.3967 117.784C46.396 117.773 46.4486 117.589 46.6994 117.112C46.9503 116.636 47.3977 115.872 49.2205 113.439C51.0433 111.006 54.228 106.927 55.9343 104.759C57.7551 102.447 58.0921 102.088 58.4371 101.663C58.5929 101.471 58.7294 101.344 58.7709 101.329C58.8123 101.314 58.7597 101.419 58.1799 102.381C57.6 103.343 56.4946 105.159 55.8725 106.213C55.1194 107.489 54.8788 108.012 54.5869 108.542C54.0753 109.471 53.7096 110.401 53.4424 111.004C53.2544 111.427 52.912 112.157 52.5918 112.678C52.5352 112.771 52.5116 112.851 52.5639 112.734C52.6161 112.617 52.7477 112.301 53.3156 111.362C53.8834 110.423 54.8836 108.87 55.8988 107.504C56.9141 106.138 57.9143 105.006 58.469 104.397C59.0237 103.788 59.1026 103.735 59.1433 103.761C59.8535 104.206 58.148 105.859 57.6335 106.941C57.2051 107.842 56.4085 109.444 55.9754 110.389C55.2915 111.883 55.2233 112.451 55.183 112.984C55.1687 113.174 55.0901 113.33 55.0634 113.397C54.9373 113.714 55.3541 112.642 56.0436 111.926C56.9586 110.975 57.3751 110.701 57.6674 110.461C57.8152 110.339 57.9869 110.248 58.0802 110.221C58.0945 110.246 58.0419 110.352 57.9884 110.445C57.935 110.539 57.8824 110.618 57.8281 110.699" stroke="#E8B1F4" stroke-linecap="round"/>
<path d="M42.3669 52.1901C42.1827 52.2425 41.5504 52.7683 40.9655 53.4851C40.6429 53.8805 40.2256 54.6205 39.8527 55.1936C39.6521 55.5019 39.5346 55.8945 39.3627 56.3186C39.2035 56.7114 38.8484 57.7149 38.4497 59.6096C38.2163 60.7188 38.3163 61.7926 38.4342 63.4033C38.5584 65.0992 39.1097 66.0879 39.2551 66.4179C39.4065 66.7617 39.9 67.9854 40.759 69.757C41.7413 71.7829 42.5766 72.4149 43.0659 72.9701C44.0889 74.131 44.7735 74.4005 45.9224 74.9827C46.7152 75.3845 47.6574 75.5403 48.4112 75.6594C48.8726 75.7324 49.1959 75.7262 49.8011 75.7659C50.9805 75.8433 52.0798 75.7007 52.7403 75.5292C53.7692 75.2619 54.1203 75.0391 55.4931 74.3656C56.1953 74.0211 56.7937 73.4776 57.2703 73.1202C58.0019 72.5715 58.3568 72.1274 58.7007 71.7434C59.0086 71.3996 59.6244 70.5961 60.4203 69.39C60.9253 68.6247 60.8984 68.0259 61.0843 67.4679C61.1435 67.2901 61.1375 67.0704 61.1772 65.9938C61.212 65.0488 61.1907 63.2922 61.1645 62.2958C61.1256 60.8166 60.927 60.2422 60.7149 59.6187C60.4866 58.9474 60.1343 58.0485 59.6566 56.9719C59.3589 56.3011 58.7301 55.4751 58.3727 54.9589C57.9139 54.2963 57.3274 54.0185 56.9299 53.6742C56.3569 53.1778 55.8978 52.959 55.21 52.4832C54.7787 52.1849 53.9694 51.8486 53.3423 51.6476C53.178 51.595 52.9845 51.6079 52.6684 51.542C52.1458 51.433 50.7439 51.3959 49.0764 51.3828C48.2426 51.3762 47.9283 51.264 47.4124 51.2239C46.2429 51.133 44.2747 51.21 43.9566 51.3029C43.7982 51.3164 43.6385 51.3427 43.4801 51.3955C43.4003 51.4221 43.3216 51.4483 43.2406 51.4753" stroke="#202020" stroke-linecap="round"/>
<path d="M44.3178 52.387C44.1418 52.5122 43.5378 53.1671 42.8534 54.0404C42.1511 54.9366 41.6379 55.4965 41.5233 55.8129C41.4927 55.8972 41.5104 56.0018 41.5479 56.0158C41.8855 56.142 42.5173 55.2241 43.7639 54.191C44.5196 53.5648 45.5865 52.8074 46.1658 52.3825C46.7451 51.9576 46.8202 51.9075 46.8088 51.9193C46.536 52.2012 46.0911 52.6625 45.3607 53.4929C44.8868 54.0318 44.2799 54.8743 43.8823 55.4251C42.8457 56.8614 42.1189 57.9488 41.79 58.4299C41.5537 58.7754 41.4095 59.0634 41.3465 59.2148C41.2792 59.3765 41.8078 58.6924 43.7324 56.4901C45.0249 55.0111 47.0843 52.9106 48.1667 51.7891C49.4352 50.4748 49.6284 50.2633 49.7047 50.212C49.7245 50.1987 49.6307 50.3611 48.2649 52.1659C46.8991 53.9706 44.245 57.451 42.8276 59.2941C41.3246 61.2485 41.0316 61.5658 40.741 61.9574C40.4113 62.4015 40.2463 62.7055 40.208 62.7692C40.1995 62.7833 40.2948 62.6577 42.0487 60.7407C43.8026 58.8237 47.233 55.0928 49.1504 53.0331C51.0678 50.9735 51.3683 50.698 51.5606 50.5061C51.753 50.3141 51.8281 50.2139 51.9043 50.1373C51.9806 50.0607 52.0557 50.0106 50.7924 51.8377C49.529 53.6648 46.9249 57.3706 45.5584 59.3298C44.0114 61.5476 43.8383 61.9202 43.6987 62.2499C43.6304 62.4111 43.534 62.5537 43.5336 62.5924C43.5332 62.6364 43.6334 62.4058 43.9976 61.8902C44.3618 61.3746 45.0128 60.4983 46.137 59.1579C47.2611 57.8175 48.8385 56.0397 49.6011 55.1865C50.3637 54.3333 50.2635 54.4585 49.4107 55.9127C48.5578 57.3668 46.9553 60.1462 46.1047 61.6531C45.1776 63.2956 44.877 64.116 44.6475 64.6768C44.6091 64.7705 45.069 63.7351 46.6271 61.3686C48.1852 59.002 50.9145 55.1459 52.5083 52.9717C54.1021 50.7974 54.4777 50.4218 54.6712 50.2659C54.8647 50.11 54.8647 50.1851 54.8146 50.2989C54.7645 50.4127 54.6643 50.563 54.1245 51.5668C53.5846 52.5707 52.6081 54.4236 52.0049 55.5283C51.4017 56.6331 51.2013 56.9336 50.2218 58.5031C49.2422 60.0726 47.4895 62.902 46.3361 64.7102C45.1828 66.5183 44.682 67.2194 44.3489 67.6557C43.8877 68.2598 43.6607 68.4721 43.5974 68.5359C43.585 68.5483 43.6091 68.4243 44.8615 66.5824C46.1138 64.7405 48.5927 61.1599 50.4957 58.6017C52.3987 56.0435 53.6506 54.6163 52.7306 56.6479C51.8106 58.6795 48.6807 64.2132 47.0558 67.1014C45.3928 70.0574 45.33 70.2173 45.2416 70.3687C45.1986 70.4424 45.1783 70.52 45.1779 70.4961C45.1775 70.4722 45.2025 70.347 46.6928 68.2794C48.183 66.2118 51.1376 62.2055 53.1229 59.6408C55.1082 57.0762 56.0347 56.0746 56.5495 55.5086C57.1482 54.8503 57.292 54.6891 57.3682 54.6258C57.3785 54.6173 57.2942 54.6375 56.0036 56.5159C54.7129 58.3942 52.209 62.125 50.531 64.8107C48.853 67.4964 48.0767 69.0237 47.6518 69.8481C47.1858 70.7523 47.1002 70.9252 47.0748 71.0394C47.0717 71.0531 47.0995 70.9783 48.4394 68.924C49.7794 66.8696 52.4336 62.8383 53.8509 60.7115C55.3454 58.469 55.5218 58.3062 55.6352 58.1548C55.6946 58.0755 55.7737 58.0034 54.5479 60.1932C53.3221 62.383 50.7931 66.84 49.4152 69.2988C47.8625 72.0695 47.7072 72.4936 47.7569 72.4697C48.1627 72.2745 48.2877 71.6111 49.6664 69.6926C50.9162 67.9534 53.3987 64.7443 54.8882 62.8299C56.3776 60.9156 56.8283 60.4148 57.0856 60.1192C57.3428 59.8237 57.3929 59.7486 57.3686 59.7725C57.2302 59.9087 57.0909 60.1758 56.051 62.2559C55.0712 64.2159 53.1332 67.9918 52.1274 69.9897C51.0763 72.0775 51.0208 72.266 50.9574 72.3297C50.9451 72.3421 50.9692 72.2181 51.8835 70.9396C52.7978 69.6611 54.6006 67.2073 55.6796 65.7804C57.0247 64.0016 57.4437 63.5925 57.7453 63.253C57.9642 63.0066 58.3474 62.638 58.5284 62.4946C58.7093 62.3512 58.6843 62.4513 58.5712 62.6406C58.4582 62.8299 58.2579 63.1054 57.3534 64.6745C56.449 66.2436 54.8465 69.0981 54.0084 70.6062C53.1325 72.1823 53.0694 72.3669 53.0436 72.4685C52.886 73.0899 54.1287 71.1817 55.0741 70.0348C55.5168 69.4977 56.2911 68.7415 57.0036 68.0411C58.3478 66.7199 59.113 66.0706 59.2143 66.0699C59.4138 66.0684 59.0394 66.6746 58.4111 67.8678C57.9187 68.8031 57.1319 70.4381 56.694 71.3516C56.0698 72.6543 55.9027 73.2243 55.7881 73.5312C55.628 73.9599 56.5036 71.8456 57.4376 70.3049C58.503 68.5476 58.9354 68.2718 59.1251 68.1197C59.1879 68.0693 58.9392 68.5958 58.4828 69.4437C58.4058 69.6103 58.3808 69.6854 58.3554 69.7616C58.3299 69.8379 58.3049 69.913 58.2791 70.1422" stroke="#202020" stroke-linecap="round"/>
<path d="M47.4475 86C47.4475 85.912 47.4475 85.824 47.5442 77.7282C47.641 69.6323 47.8344 53.5313 48.0792 44.137C48.3239 34.7428 48.6141 32.5432 48.8604 31.1021C49.2141 29.0315 49.983 25.5951 50.7158 21.1973C51.1261 18.7352 51.2581 16.9567 51.5498 15.3956C51.6098 15.0745 51.7447 14.8184 51.6494 14.7704C50.3991 14.1406 48.5321 17.2926 47.2086 18.7177C45.3095 20.7626 44.4224 21.7398 44.0766 22.5437C43.4288 24.049 47.0488 18.7324 49.004 15.9342C50.0049 14.5017 51.0588 13.3094 52.1331 12.1056C52.3417 11.8718 52.7179 12.0563 53.0125 12.3655C53.993 14.0106 55.5436 16.4821 57.0679 19.1603C57.3141 19.6095 57.5075 19.8735 58 20.6787" stroke="#E8B1F4" stroke-linecap="round"/>
<path d="M93.9938 55.8144C93.7735 55.4833 93.3317 55.1146 92.5948 54.5986C92.0566 54.2218 91.4129 54.0439 90.7696 53.8048C89.8882 53.4771 88.3204 53.3785 86.6607 53.415C85.2477 53.4461 84.4739 54.2621 83.7199 54.9242C82.5051 55.991 81.2663 57.5051 80.3263 58.7396C79.2627 60.1365 79.0486 61.0515 78.6788 61.9367C78.3524 62.7178 78.1982 63.6712 78.0875 64.6461C77.9568 65.7969 78.1595 66.7725 78.49 67.5083C78.9158 68.4562 79.817 69.318 80.6823 70.1285C81.9912 71.3545 82.8818 71.5347 84.0216 71.941C85.6446 72.5196 87.5642 72.5334 88.8547 72.4969C90.221 72.4582 91.5136 71.5413 92.3308 70.9667C92.9835 70.5076 93.7303 69.6967 94.2324 69.1027C94.6461 68.6133 95.0257 68.1067 95.3214 67.5714C95.5866 67.091 95.8384 66.6673 95.968 66.0772C96.127 65.3527 96.0975 64.0919 96.1894 63.0883C96.2973 61.91 96.0245 61.4634 95.9503 61.02C95.8469 60.402 95.3601 59.8026 95.2123 59.3591C95.0497 58.8714 94.8065 58.3632 94.6587 57.8279C94.4744 57.3656 94.1798 56.9238 93.7923 56.5723C93.6993 56.4798 93.6262 56.3702 93.5509 56.2573" stroke="#202020" stroke-linecap="round"/>
<path d="M85.5993 55.1451C85.57 55.1451 85.5408 55.1451 84.5739 56.463C83.607 57.7809 81.7033 60.4167 80.6787 61.8477C79.555 63.4172 79.3586 63.8397 79.2397 64.2097C79.2071 64.3111 79.3551 64.2577 79.4447 64.1836C79.7926 63.896 80.0952 63.4305 80.9809 62.4117C81.1968 62.1634 81.3075 61.9822 82.5833 60.5445C83.859 59.1068 86.2898 56.4124 87.4981 55.0683C88.7064 53.7242 88.6185 53.8121 88.5293 53.8867C88.1671 54.1894 87.8198 54.5815 86.7042 55.7699C85.7439 56.7929 84.0658 58.7447 82.4732 60.7655C80.8806 62.7862 79.4456 64.8363 78.8381 65.7606C78.2306 66.6849 78.4942 66.4213 78.7032 66.227C79.3261 65.6477 79.7402 65.2046 81.2951 63.7234C82.6847 62.3996 85.2514 59.87 86.623 58.5139C88.4691 56.6888 89.0596 56.0627 89.1341 56.0033C89.5206 55.695 88.3221 56.8295 86.856 58.8822C85.5126 60.7632 82.9298 64.3322 81.5582 66.2607C79.873 68.6301 79.5663 69.2524 79.4314 69.6104C79.3915 69.7163 80.0038 68.8477 81.6505 66.9205C82.8229 65.5484 84.8201 63.4998 86.0945 62.1943C87.8608 60.385 88.5271 59.8789 88.7481 59.7023C89.3461 59.2243 89.5024 58.7855 89.7696 58.4301C90.0262 58.0886 90.2133 57.8377 90.3757 57.705C90.4571 57.6385 90.5088 57.543 89.0015 59.5332C87.4941 61.5234 84.419 65.5942 82.5713 68.1013C80.7236 70.6084 80.1964 71.4284 79.8663 71.968C79.5361 72.5076 79.419 72.7419 79.4172 72.8333C79.4149 72.9532 79.829 72.5715 80.1698 72.2596C80.3244 72.118 80.539 71.8606 81.0249 71.3898C81.8239 70.6156 82.4905 69.8203 83.9735 68.2792C85.2128 66.9913 87.3601 64.6002 88.5497 63.2757C90.1751 61.4659 90.5674 61.0344 90.9086 60.722C91.1237 60.525 90.452 61.2083 89.5717 62.4548C88.7853 63.5681 87.4027 65.722 86.4735 67.0723C85.5443 68.4226 85.1343 68.9204 84.6156 69.6162C83.4559 71.1716 82.7603 72.213 82.7004 72.2587C82.6394 72.3052 82.8748 71.9236 84.5756 70.1917C86.2765 68.4598 89.5273 65.2676 91.2459 63.5938C93.1903 61.7001 93.5262 61.4479 93.7193 61.1803C93.7705 61.1093 93.5582 61.4745 92.546 62.8967C91.6284 64.186 89.9817 66.6911 88.9606 68.2664C87.9396 69.8416 87.6174 70.4274 87.4954 70.6852C87.3734 70.943 87.4612 70.8551 87.5797 70.7074C88.099 70.0598 88.4073 69.6127 90.1481 67.7694C91.0503 66.814 91.8684 66.1515 92.1804 65.8107C92.3219 65.6561 92.5793 65.4708 92.7865 65.2929C92.8385 65.2483 92.818 65.3492 92.2904 66.0974C91.7628 66.8455 90.7378 68.2513 90.1658 69.034C89.5075 69.935 89.3569 70.1718 89.3706 70.3053C89.4 70.5902 90.7964 69.3819 92.2895 68.155C93.4978 67.1622 94.4421 66.4479 94.7106 66.3268C95.2629 66.0776 93.9433 67.1828 93.6172 67.7157C93.3815 68.1007 93.2032 68.5441 93.0253 68.9142C92.9103 69.1534 92.7586 69.3438 92.7142 69.4183C92.5394 69.712 92.9352 68.6666 93.201 68.2074C93.4799 67.7253 93.7623 66.9804 93.9411 66.5212C94.1058 66.0983 94.325 65.5605 94.4736 65.1749C94.5074 65.0871 94.5326 64.9978 94.5038 64.9672C94.4238 64.8822 94.238 65.1718 93.8839 65.5272C93.4416 65.9711 92.2625 66.7373 91.4438 67.0519C91.3448 67.0899 91.3093 66.9502 91.3235 66.8611C91.3996 66.3833 92.0459 65.8569 92.7262 64.8079C93.1822 64.1047 93.3789 63.6666 93.5857 63.2965C93.6441 63.1921 93.7037 63.0755 93.6607 63.0152C93.412 62.6666 92.8784 63.1909 92.0961 63.545C91.3651 63.8759 90.9259 63.9896 90.4968 64.1964C90.2937 64.2943 90.1263 64.4041 89.9932 64.3899C89.9308 64.3832 89.9479 64.2293 89.9772 64.125C90.1028 63.678 91.0946 62.5502 92.3552 60.4766C92.6159 60.0477 92.6689 59.8496 92.7138 59.7311C92.8768 59.3 91.6661 60.5569 91.1926 60.9709C90.3706 61.6897 89.8326 62.2129 89.2544 62.717C89.1923 62.7711 89.2078 62.6318 89.2522 62.5275C89.4942 61.9587 90.1237 61.3592 90.6264 60.7091C90.9867 60.2433 91.4247 59.7333 91.8986 59.1556C92.1172 58.8891 92.2847 58.6959 92.2851 58.5335C92.2853 58.4535 92.1684 58.4003 92.0646 58.3995C91.5179 58.3948 91.0147 58.8121 90.5856 59.0491C90.1339 59.2985 89.419 59.6393 88.7521 59.9956C88.6222 60.0649 88.5298 60.0848 88.5431 60.0413C88.6841 59.5805 89.1474 59.318 89.5765 58.7859C89.9695 58.2987 90.3012 57.9868 90.6712 57.543C91.107 57.0206 91.6324 56.6556 91.9732 56.3738C92.2964 56.1065 92.5207 55.8852 92.5953 55.8258C92.886 55.5939 91.698 56.6786 90.8234 57.5386C90.3789 57.9757 89.861 58.3382 89.4319 58.6053C89.3276 58.6648 89.2397 58.7234 89.2238 58.7096C89.2078 58.6959 89.2664 58.608 89.5042 58.34" stroke="#202020" stroke-linecap="round"/>
<path d="M84.9147 96.228C84.329 96.228 83.1453 96.301 82.6836 96.559C82.1332 96.8666 81.6329 97.333 81.0599 97.9048C80.4609 98.5027 79.7528 99.543 79.1405 100.433C78.2267 101.76 77.2394 103.863 77.0357 104.732C76.9426 105.129 76.7954 105.526 76.7401 106.334C76.6348 107.868 76.8309 109.471 77.07 110.614C77.2674 111.556 77.6059 112.17 77.9364 112.904C78.523 114.207 79.4461 115.855 80.6796 117.31C81.7423 118.564 82.7346 119.072 83.5788 119.458C85.0394 120.126 86.3142 120.438 87.0129 120.586C87.9225 120.777 89.3347 120.808 90.8826 120.735C92.0122 120.682 92.8822 120.146 93.7658 119.668C94.6817 119.172 95.6857 118.231 96.8272 116.998C97.993 115.739 98.5324 114.684 98.8811 114.004C99.8452 112.125 100.595 110.56 100.987 109.388C101.318 108.4 101.375 107.34 101.394 105.811C101.411 104.465 100.418 102.949 99.9928 102.32C99.6357 101.792 99.0184 101.031 98.2041 100.345C97.8681 100.062 96.8804 99.4444 95.6265 98.5775C94.9885 98.1364 94.367 97.891 92.0407 97.1386C90.1164 96.6055 86.6818 95.7651 84.5288 95.3322C82.3758 94.8993 81.6085 94.8993 80.818 94.8993" stroke="#202020" stroke-linecap="round"/>
<path d="M83.4797 97.445C83.4238 97.576 83.2358 97.8764 82.3075 99.4704C82.0364 99.9358 81.8648 100.354 81.6477 100.891C81.17 102.073 80.8829 102.864 80.7796 103.09C80.6013 103.478 80.5249 103.655 80.4688 103.787C80.4356 103.864 80.3753 103.955 80.4769 103.836C80.5786 103.716 80.8394 103.381 81.7564 102.407C82.6734 101.433 84.2386 99.8301 85.0635 98.9766C85.8885 98.1231 85.9257 98.0672 85.917 98.0478C85.8905 97.9888 85.7388 98.1406 84.5827 99.5113C83.4866 100.811 81.3397 103.323 80.152 104.74C78.7757 106.382 78.5865 106.705 78.5673 106.761C78.5328 106.863 78.9603 106.425 80.2773 104.95C81.3842 103.71 83.3272 101.425 84.2979 100.291C85.2685 99.157 85.194 99.2315 83.9165 101.003C82.639 102.774 80.1607 106.24 78.8748 108.053C77.5888 109.867 77.5702 109.922 78.9953 108.284C80.4205 106.645 83.29 103.309 85.085 101.284C86.88 99.2581 87.5135 98.6432 87.8026 98.345C88.0917 98.0469 88.0172 98.0842 86.898 99.3518C85.7789 100.619 83.6175 103.116 82.3456 104.626C81.0738 106.136 80.757 106.583 80.5659 106.869C80.3057 107.259 80.2053 107.457 80.102 107.607C80.0514 107.681 80.0173 107.758 81.0788 106.436C82.1404 105.114 84.3018 102.394 85.4991 100.908C87.0378 98.9995 87.2809 98.895 87.3752 98.8287C87.3927 98.8164 87.3577 98.93 86.0341 100.655C84.7106 102.38 82.102 105.734 80.4879 107.946C78.8739 110.158 78.3336 111.127 78.0366 111.673C77.7396 112.219 77.7023 112.312 79.416 110.273C81.1297 108.234 84.5954 104.06 86.3995 101.882C88.2035 99.7041 88.2408 99.6482 87.6264 100.374C87.0121 101.1 85.745 102.609 84.6172 104.132C83.4893 105.655 82.539 107.146 82.0215 107.969C81.3303 109.07 81.185 109.544 81.052 109.866C81.0292 109.922 81.0145 109.979 81.0421 109.97C81.0698 109.962 81.1443 109.887 81.3132 109.653C81.482 109.419 81.7429 109.028 83.4518 107.205C85.1606 105.383 88.3096 102.141 89.9505 100.442C91.5913 98.7442 91.6286 98.6883 90.1385 100.262C88.6484 101.836 85.6299 105.041 83.7488 107.129C81.8677 109.218 81.2155 110.094 80.8702 110.573C80.5249 111.052 80.5063 111.108 81.8197 109.609C83.133 108.11 85.7789 105.054 87.1979 103.433C88.7116 101.704 88.9183 101.53 89.0685 101.361C89.3521 101.042 89.6896 100.815 89.9065 100.608C89.96 100.557 89.9911 100.495 90.1408 100.336C90.2904 100.177 90.5513 99.9159 89.0646 101.682C87.5779 103.448 84.3357 107.249 81.9854 110.204C79.6351 113.16 78.2748 115.153 77.5555 116.218C76.8361 117.282 76.7989 117.357 76.761 117.423C76.7232 117.489 76.6859 117.545 79.1263 115.03C81.5667 112.516 86.4859 107.429 89.2436 104.604C92.0013 101.778 92.4485 101.368 92.5298 101.259C92.6111 101.151 92.313 101.356 90.5756 103.129C88.8381 104.902 85.6705 108.238 83.8524 110.226C82.0342 112.214 81.6616 112.755 81.4603 113.061C81.1581 113.521 81.0709 113.706 81.0238 113.754C81.0146 113.763 81.0325 113.671 81.3962 113.055C81.7598 112.438 82.4679 111.283 83.4475 109.924C84.4272 108.565 85.657 107.037 87.1662 105.412C88.6755 103.786 90.4271 102.109 91.3666 101.217C92.5098 100.132 92.7393 100.005 92.8053 99.9766C92.8176 99.9713 92.7782 100.041 91.2777 101.924C89.7771 103.807 86.8145 107.515 85.074 109.742C83.3335 111.969 82.9049 112.602 82.6841 112.975C82.4633 113.348 82.4633 113.441 82.5006 113.443C82.5379 113.444 82.6124 113.351 83.7967 112.101C84.9811 110.851 87.273 108.448 88.6213 107.06C89.9697 105.673 90.3051 105.375 90.4313 105.268C90.5575 105.161 90.4643 105.254 88.7859 107.333C87.1075 109.412 83.8467 113.474 82.1017 115.678C80.3567 117.883 80.2262 118.106 80.187 118.166C80.1478 118.225 80.2037 118.113 82.6454 115.214C85.0872 112.315 89.9132 106.632 92.4646 103.648C95.0159 100.665 95.1463 100.553 95.316 100.383C95.4857 100.214 95.6906 99.9904 95.8149 99.8473C95.9391 99.7041 95.9763 99.6482 94.626 101.129C93.2757 102.609 90.5366 105.628 88.9113 107.5C87.2859 109.371 86.8574 110.005 86.618 110.387C86.3174 110.867 86.2843 111.052 86.3026 111.1C86.3163 111.135 86.4328 111.017 87.3379 109.916C88.243 108.816 89.9573 106.692 90.9429 105.495C91.9284 104.298 92.1334 104.093 92.4719 103.792C93.2648 103.086 93.8307 102.659 93.9436 102.64C93.9855 102.633 93.982 102.732 92.2305 105.221C90.479 107.71 86.976 112.61 85.0689 115.349C83.1618 118.088 82.9568 118.516 82.8419 118.765C82.727 119.014 82.7084 119.07 82.9224 118.838C83.1364 118.606 83.5836 118.084 85.0344 115.961C86.4853 113.838 88.9262 110.13 90.5098 107.838C92.0933 105.546 92.7455 104.782 93.1001 104.36C93.4547 103.939 93.4919 103.883 93.4366 103.975C93.3813 104.068 93.2322 104.31 91.9536 106.037C90.6749 107.764 88.2712 110.969 87.005 112.667C85.6742 114.451 85.6067 114.61 85.6157 114.676C85.6197 114.705 85.7179 114.649 87.1911 113.008C88.6642 111.368 91.5337 108.126 93.3194 106.167C95.1051 104.208 95.72 103.63 96.0927 103.295C96.4653 102.96 96.5771 102.886 96.6347 102.894C96.6923 102.902 96.6923 102.995 95.8072 104.637C94.9222 106.278 93.152 109.464 92.2122 111.18C91.1966 113.034 91.1402 113.254 91.1679 113.283C91.205 113.322 91.326 113.144 92.3059 111.838C93.2858 110.532 95.1305 108.035 96.1367 106.693C97.1429 105.351 97.2547 105.239 97.3775 105.098C97.5003 104.956 97.6307 104.789 96.2911 106.295C94.9515 107.802 92.1379 110.988 90.6698 112.658C89.2018 114.327 89.1645 114.383 89.136 114.375C89.1075 114.366 89.0888 114.292 89.6848 113.238C90.2808 112.184 91.492 110.153 92.1625 109.06C92.9002 107.858 93.2644 107.443 93.6593 106.906C93.8089 106.703 93.868 106.65 93.8222 106.677C93.7765 106.704 93.6274 106.816 92.6469 107.712C91.6664 108.608 89.859 110.285 88.8068 111.279C87.7546 112.274 87.5124 112.534 87.4155 112.66C87.3187 112.785 87.3746 112.766 88.8661 111.694C90.3576 110.623 93.283 108.498 94.8273 107.376C96.3716 106.254 96.4461 106.198 96.4379 106.244C96.4298 106.29 96.3366 106.439 95.0868 107.95C93.8369 109.462 91.4332 112.331 90.1577 113.875C88.8822 115.418 88.8077 115.549 88.8065 115.588C88.8054 115.627 88.8799 115.571 89.9804 114.033C91.0809 112.495 93.2051 109.476 94.3273 107.893C95.4495 106.31 95.5054 106.255 95.5156 106.263C95.5258 106.271 95.4885 106.346 93.96 108.164C92.4315 109.982 89.413 113.541 88.9293 114.191C88.4457 114.841 90.5885 112.475 91.711 111.228C92.878 109.931 92.9651 109.793 93.0125 109.68C93.0278 109.643 92.9295 109.641 92.0247 110.321C91.1199 111.001 89.387 112.362 88.3266 113.221C86.9085 114.37 86.5666 114.779 86.6222 114.882C86.7437 115.108 87.2046 114.987 87.5519 114.921C87.7343 114.887 87.9178 114.8 88.6659 114.24C89.4141 113.68 90.7184 112.636 91.4276 112.071C92.1368 111.505 92.2113 111.449 91.1783 112.483C90.1453 113.516 88.0025 115.64 86.8334 116.818C85.5156 118.146 85.2877 118.449 85.0903 118.655C84.9379 118.815 84.8354 118.976 84.8066 119.005C84.6276 119.186 85.5638 118.097 86.3726 117.27C86.9172 116.712 87.1679 116.475 87.3749 116.351C87.4294 116.319 87.4875 116.286 87.507 116.313C87.5769 116.412 87.47 116.586 87.4791 116.661C87.5229 117.027 88.5197 115.856 88.8994 115.608C88.9564 115.571 89.0121 115.515 89.0688 115.477C89.1735 115.406 88.9595 115.997 88.4522 117.031C87.8735 118.21 87.5643 118.599 87.5265 118.694C87.4898 118.786 87.6948 118.376 88.3763 117.284C88.9731 116.327 90.0454 114.533 90.7418 113.472C91.4383 112.411 91.7178 112.131 91.8525 112.034C91.9466 111.966 91.4649 112.852 90.7029 114.028C90.4158 114.471 90.3695 114.626 90.322 114.731C90.2746 114.835 90.2373 114.891 91.1032 113.467C91.9691 112.042 93.7392 109.135 94.6791 107.61C95.6189 106.085 95.6748 106.029 95.7036 106.046C95.7324 106.064 95.7324 106.157 94.9219 107.761C94.1113 109.365 92.4903 112.477 91.4781 114.369C90.466 116.261 90.112 116.838 89.9576 117.061C89.8031 117.284 89.859 117.135 90.3909 116.164C90.9228 115.193 91.929 113.404 92.7362 112.091C93.5433 110.778 94.1209 109.996 94.5117 109.49C94.9024 108.985 95.0887 108.78 95.0543 108.898C95.0198 109.016 94.759 109.463 94.3637 110.057C93.4729 111.395 92.8906 112.182 92.8437 112.294C92.8194 112.353 92.7782 112.407 92.8522 112.361C92.9262 112.315 93.1125 112.166 93.6557 111.493C94.1989 110.82 95.0932 109.628 95.3677 109.339C95.6421 109.051 95.2694 109.703 94.5464 110.719C93.8234 111.736 92.7613 113.096 92.1955 113.824C91.6297 114.553 91.5925 114.609 92.1136 114.088C92.6348 113.567 93.7155 112.468 94.5983 111.622C95.4812 110.776 96.1333 110.217 96.4972 109.911C96.9122 109.561 97.0305 109.491 97.0966 109.491C97.1347 109.49 97.0695 109.639 96.4168 110.544C95.764 111.45 94.497 113.145 93.8349 114.047C93.1729 114.948 93.1543 115.004 93.154 114.996C93.1512 114.911 93.4897 114.109 94.2209 112.505C94.6267 111.615 95.213 110.621 95.5848 109.982C96.2984 108.755 96.4845 108.55 96.5788 108.512C96.617 108.496 96.5613 108.697 96.1136 109.408C95.6658 110.118 94.8087 111.385 94.2367 112.308C93.3497 113.739 93.0792 114.495 92.9945 114.796C92.9576 114.927 92.9657 115.022 93.0123 115.08C93.0588 115.137 93.152 115.156 93.2466 115.137C93.4448 115.099 93.7539 114.838 94.5492 114.08C95.144 113.514 96.0339 112.485 96.5416 111.911C97.5511 110.769 98.2541 109.981 98.3106 109.97C98.3594 109.962 98.3298 110.165 98.1062 110.699C97.8826 111.232 97.4354 112.145 97.1677 112.652C96.7529 113.439 96.3558 113.892 96.1373 114.093C95.7194 114.477 96.672 113.238 97.5638 112.392C97.8904 112.083 98.1033 111.994 98.216 111.947C98.3363 111.897 97.8459 112.626 96.934 113.924C96.3761 114.662 96.091 115.06 95.9219 115.351C95.8459 115.475 95.79 115.55 95.7324 115.683" stroke="#202020" stroke-linecap="round"/>
<path d="M180 1V121" stroke="#A4A4A4" stroke-linecap="round"/>
<path d="M217.347 1C217.347 9.62609 218.122 25.9043 219.495 37.5739C220.523 46.3072 219.695 62.9826 219.501 71.987C219.226 84.7668 217.746 90.5478 217.154 101.97C216.573 105.33 215.786 107.078 215.2 110.391C215 112.843 215 116.861 215 121" stroke="#A4A4A4" stroke-linecap="round"/>
<path d="M253 3C253 5.04706 253.66 9.15883 254.165 36.1279C254.349 45.944 255.66 52.3941 256.83 59.1441C258.498 68.7658 258 76.4824 258.83 84C259 89.1176 259.33 92.9912 259.83 98.9735C260 104.082 260 113.4 260 123" stroke="#A4A4A4" stroke-linecap="round"/>
<path d="M152.526 41C153.191 41 170.838 41 197.556 41.165C212.348 41.2563 221.077 42.66 236.163 43.165C249.595 44 265.457 44.33 267.801 44.83C269.147 45 270.811 45 272.526 45" stroke="#A4A4A4" stroke-linecap="round"/>
<path d="M151 85C159.125 85 176.22 84.34 181.797 83.17C188.25 81.8163 193.59 82 200.156 81.005C207.358 79.9135 214.58 79.34 219.833 78.835C225.125 78.3261 229.669 77.34 248.466 76.835C252.626 76.67 253.925 76.34 257.352 76.17C260.78 76 266.298 76 271 76" stroke="#A4A4A4" stroke-linecap="round"/>
<path d="M194.445 10.0757C194.151 10.1123 192.757 11.2095 191.992 12.1772C191.452 12.8593 191.088 13.7273 190.866 14.2986C190.637 14.8875 190.496 15.3893 190.258 16.1765C189.688 18.0576 189.573 19.5956 189.536 20.147C189.485 20.9237 189.315 22.8674 189.296 25.4113C189.278 27.8373 189.903 28.7833 190.364 29.56C190.6 29.9554 191.083 30.4087 192.129 31.2352C192.853 31.808 194.088 32.5368 195.038 33.0782C197.54 34.5041 198.539 34.5076 199.093 34.5635C199.832 34.6382 200.789 34.7291 202.888 34.7484C203.749 34.7564 205.355 34.2175 206.695 33.5693C207.397 33.2293 207.913 32.6652 208.486 32.2035C209.037 31.7594 209.39 31.1527 210.623 28.8359C212.027 26.1961 212.196 25.3952 212.547 24.2708C212.72 23.7146 212.714 23.1808 212.806 22.6078C212.879 22.1481 212.935 19.2922 212.715 17.4415C212.598 16.4614 212.198 15.7624 211.903 15.1163C211.484 14.1965 210.871 13.6587 210.5 13.1776C210.117 12.6801 209.578 12.1816 209.062 11.7382C208.518 11.2704 207.955 11.0368 207.42 10.6675C206.984 10.3668 206.296 9.96721 205.63 9.5603C204.972 9.15904 203.276 8.97071 202.198 8.65571C201.471 8.44318 200.649 8.41489 199.909 8.30472C199.35 8.22151 198.692 8.12036 198.211 8.06445C197.99 8.00964 197.146 7.972 195.984 8.0268C195.553 8.08161 195.443 8.19123 195.109 8.41489" stroke="#E8B1F4" stroke-linecap="round"/>
<path d="M196.76 9.82611C196.47 10.2209 195.884 11.233 195.26 12.2144C194.901 12.7808 194.713 13.254 194.476 13.8881C193.658 16.0701 193.437 16.2855 193.371 16.3394C193.248 16.4382 193.858 15.4943 195.338 13.9331C196.332 12.8855 197.977 11.4771 198.844 10.705C199.78 9.87042 199.949 9.77347 199.99 9.74635C200.028 9.72083 199.794 9.87715 198.133 11.9448C196.473 14.0125 193.314 18.0394 191.411 20.5612C189.508 23.0831 188.955 23.978 188.631 24.5311C188.206 25.2561 188.067 25.5898 188 25.7103C187.992 25.7246 188.118 25.5412 189.83 23.828C191.542 22.1149 194.859 18.8513 196.62 17.1042C198.381 15.3572 198.486 15.2256 198.724 15.013C199.768 14.0826 200.161 13.7357 200.825 13.0722C201.055 12.842 201.119 12.6184 201.225 12.4592C201.279 12.3791 201.331 12.3001 199.253 15.1151C197.175 17.9301 192.964 23.6414 190.768 26.6231C188.572 29.6047 188.52 29.6837 191.045 26.8029C193.571 23.9221 198.677 18.0792 201.347 15.0035C204.017 11.9277 204.096 11.7961 204.189 11.6756C204.537 11.2267 204.919 10.654 205.213 10.2261C205.268 10.1467 205.319 10.067 205.294 10.0789C205.268 10.0909 205.163 10.1962 203.306 12.9745C201.449 15.7528 197.843 21.2009 195.959 24.0601C194.011 27.017 193.916 27.2384 193.889 27.3058C193.872 27.3482 194.019 27.0837 195.482 25.2385C196.944 23.3934 199.76 19.8929 201.33 17.9712C203.11 15.7911 203.459 15.4632 203.67 15.2116C204.198 14.5843 204.495 14.3467 204.774 14.028C204.99 13.7821 205.213 13.5754 205.293 13.5216C205.314 13.5076 205.216 13.6783 203.148 16.9702C201.081 20.2621 197.028 26.7104 194.9 30.0849C192.773 33.4593 192.694 33.5646 192.64 33.6583C192.586 33.752 192.56 33.831 192.573 33.7927C192.638 33.5965 192.798 33.3022 193.01 33.0107C193.123 32.8552 193.222 32.6666 195.513 29.7423C197.805 26.8181 202.279 21.1594 204.597 18.2048C206.915 15.2503 206.942 15.1713 206.995 15.078C207.112 14.8707 207.234 14.692 207.261 14.6119C207.261 14.6107 207.235 14.6896 205.59 17.4938C203.944 20.298 200.681 25.8251 198.71 29.3699C196.739 32.9146 196.16 34.3095 195.862 35.0939C195.564 35.8783 195.564 36.0099 196.827 34.1169C198.09 32.2239 200.617 28.3023 202.182 25.94C203.747 23.5776 204.273 22.8933 204.834 22.2118C205.951 20.8536 206.622 20.1154 206.742 19.9563C207.188 19.3604 207.897 18.4158 208.111 18.0421C208.159 17.9588 208.243 17.883 208.231 17.9082C208.147 18.0849 207.9 18.3057 207.438 18.9258C207.064 19.4281 206.476 20.3618 205.137 22.8235C203.799 25.2852 201.746 29.2594 200.623 31.491C199.325 34.0697 199.153 34.6022 199.007 34.8806C198.932 35.0234 198.888 35.1852 198.887 35.1745C198.886 35.1637 198.939 34.9795 199.19 34.5029C199.44 34.0264 199.888 33.2631 201.711 30.8302C203.534 28.3972 206.718 24.3177 208.425 22.1504C210.245 19.8377 210.582 19.4789 210.927 19.0542C211.083 18.8624 211.22 18.7348 211.261 18.7197C211.303 18.7045 211.25 18.8098 210.67 19.772C210.09 20.7343 208.985 22.5503 208.363 23.6043C207.61 24.8803 207.369 25.4024 207.077 25.9328C206.566 26.8623 206.2 27.7919 205.933 28.3944C205.745 28.8184 205.402 29.5481 205.082 30.0693C205.025 30.1614 205.002 30.242 205.054 30.1247C205.106 30.0075 205.238 29.6917 205.806 28.7525C206.374 27.8134 207.374 26.2606 208.389 24.8948C209.404 23.5289 210.405 22.3972 210.959 21.7879C211.514 21.1785 211.593 21.1259 211.634 21.1514C212.344 21.597 210.638 23.2498 210.124 24.3317C209.695 25.2327 208.899 26.8348 208.466 27.7803C207.782 29.2735 207.714 29.8416 207.673 30.3748C207.659 30.5646 207.58 30.7213 207.554 30.7883C207.428 31.1045 207.844 30.033 208.534 29.3164C209.449 28.3655 209.865 28.0918 210.158 27.8517C210.305 27.7303 210.477 27.6388 210.57 27.6116C210.585 27.6372 210.532 27.7424 210.479 27.8362C210.425 27.9299 210.373 28.0088 210.318 28.0902" stroke="#E8B1F4" stroke-linecap="round"/>
<path d="M234.915 96.228C234.329 96.228 233.145 96.301 232.684 96.559C232.133 96.8666 231.633 97.333 231.06 97.9048C230.461 98.5027 229.753 99.543 229.141 100.433C228.227 101.76 227.239 103.863 227.036 104.732C226.943 105.129 226.795 105.526 226.74 106.334C226.635 107.868 226.831 109.471 227.07 110.614C227.267 111.556 227.606 112.17 227.936 112.904C228.523 114.207 229.446 115.855 230.68 117.31C231.742 118.564 232.735 119.072 233.579 119.458C235.039 120.126 236.314 120.438 237.013 120.586C237.922 120.777 239.335 120.808 240.883 120.735C242.012 120.682 242.882 120.146 243.766 119.668C244.682 119.172 245.686 118.231 246.827 116.998C247.993 115.739 248.532 114.684 248.881 114.004C249.845 112.125 250.595 110.56 250.987 109.388C251.318 108.4 251.375 107.34 251.394 105.811C251.411 104.465 250.418 102.949 249.993 102.32C249.636 101.792 249.018 101.031 248.204 100.345C247.868 100.062 246.88 99.4444 245.626 98.5775C244.988 98.1364 244.367 97.891 242.041 97.1386C240.116 96.6055 236.682 95.7651 234.529 95.3322C232.376 94.8993 231.609 94.8993 230.818 94.8993" stroke="#202020" stroke-linecap="round"/>
<path d="M233.48 97.445C233.424 97.576 233.236 97.8764 232.308 99.4704C232.037 99.9358 231.865 100.354 231.648 100.891C231.17 102.073 230.883 102.864 230.78 103.09C230.602 103.478 230.525 103.655 230.469 103.787C230.436 103.864 230.376 103.955 230.477 103.836C230.579 103.716 230.84 103.381 231.757 102.407C232.674 101.433 234.239 99.8301 235.064 98.9766C235.889 98.1231 235.926 98.0672 235.917 98.0478C235.891 97.9888 235.739 98.1406 234.583 99.5113C233.487 100.811 231.34 103.323 230.152 104.74C228.776 106.382 228.587 106.705 228.568 106.761C228.533 106.863 228.961 106.425 230.278 104.95C231.384 103.71 233.327 101.425 234.298 100.291C235.269 99.157 235.194 99.2315 233.917 101.003C232.639 102.774 230.161 106.24 228.875 108.053C227.589 109.867 227.57 109.922 228.996 108.284C230.421 106.645 233.29 103.309 235.085 101.284C236.88 99.2581 237.514 98.6432 237.803 98.345C238.092 98.0469 238.017 98.0842 236.898 99.3518C235.779 100.619 233.618 103.116 232.346 104.626C231.074 106.136 230.757 106.583 230.566 106.869C230.306 107.259 230.206 107.457 230.102 107.607C230.052 107.681 230.018 107.758 231.079 106.436C232.141 105.114 234.302 102.394 235.499 100.908C237.038 98.9995 237.281 98.895 237.375 98.8287C237.393 98.8164 237.358 98.93 236.034 100.655C234.711 102.38 232.102 105.734 230.488 107.946C228.874 110.158 228.334 111.127 228.037 111.673C227.74 112.219 227.703 112.312 229.416 110.273C231.13 108.234 234.596 104.06 236.4 101.882C238.204 99.7041 238.241 99.6482 237.627 100.374C237.012 101.1 235.745 102.609 234.617 104.132C233.49 105.655 232.539 107.146 232.022 107.969C231.331 109.07 231.185 109.544 231.052 109.866C231.029 109.922 231.015 109.979 231.042 109.97C231.07 109.962 231.145 109.887 231.313 109.653C231.482 109.419 231.743 109.028 233.452 107.205C235.161 105.383 238.31 102.141 239.951 100.442C241.592 98.7442 241.629 98.6883 240.139 100.262C238.649 101.836 235.63 105.041 233.749 107.129C231.868 109.218 231.216 110.094 230.87 110.573C230.525 111.052 230.507 111.108 231.82 109.609C233.133 108.11 235.779 105.054 237.198 103.433C238.712 101.704 238.919 101.53 239.069 101.361C239.352 101.042 239.69 100.815 239.907 100.608C239.96 100.557 239.991 100.495 240.141 100.336C240.291 100.177 240.552 99.9159 239.065 101.682C237.578 103.448 234.336 107.249 231.986 110.204C229.635 113.16 228.275 115.153 227.556 116.218C226.836 117.282 226.799 117.357 226.761 117.423C226.723 117.489 226.686 117.545 229.127 115.03C231.567 112.516 236.486 107.429 239.244 104.604C242.002 101.778 242.449 101.368 242.53 101.259C242.611 101.151 242.313 101.356 240.576 103.129C238.838 104.902 235.671 108.238 233.853 110.226C232.034 112.214 231.662 112.755 231.461 113.061C231.158 113.521 231.071 113.706 231.024 113.754C231.015 113.763 231.033 113.671 231.396 113.055C231.76 112.438 232.468 111.283 233.448 109.924C234.427 108.565 235.657 107.037 237.166 105.412C238.676 103.786 240.427 102.109 241.367 101.217C242.51 100.132 242.739 100.005 242.806 99.9766C242.818 99.9713 242.778 100.041 241.278 101.924C239.777 103.807 236.815 107.515 235.074 109.742C233.334 111.969 232.905 112.602 232.684 112.975C232.464 113.348 232.464 113.441 232.501 113.443C232.538 113.444 232.613 113.351 233.797 112.101C234.981 110.851 237.273 108.448 238.622 107.06C239.97 105.673 240.305 105.375 240.432 105.268C240.558 105.161 240.465 105.254 238.786 107.333C237.108 109.412 233.847 113.474 232.102 115.678C230.357 117.883 230.226 118.106 230.187 118.166C230.148 118.225 230.204 118.113 232.646 115.214C235.087 112.315 239.913 106.632 242.465 103.648C245.016 100.665 245.147 100.553 245.316 100.383C245.486 100.214 245.691 99.9904 245.815 99.8473C245.939 99.7041 245.977 99.6482 244.626 101.129C243.276 102.609 240.537 105.628 238.912 107.5C237.286 109.371 236.858 110.005 236.618 110.387C236.318 110.867 236.285 111.052 236.303 111.1C236.317 111.135 236.433 111.017 237.338 109.916C238.243 108.816 239.958 106.692 240.943 105.495C241.929 104.298 242.134 104.093 242.472 103.792C243.265 103.086 243.831 102.659 243.944 102.64C243.986 102.633 243.982 102.732 242.231 105.221C240.479 107.71 236.976 112.61 235.069 115.349C233.162 118.088 232.957 118.516 232.842 118.765C232.727 119.014 232.709 119.07 232.923 118.838C233.137 118.606 233.584 118.084 235.035 115.961C236.486 113.838 238.926 110.13 240.51 107.838C242.094 105.546 242.746 104.782 243.1 104.36C243.455 103.939 243.492 103.883 243.437 103.975C243.381 104.068 243.232 104.31 241.954 106.037C240.675 107.764 238.271 110.969 237.005 112.667C235.674 114.451 235.607 114.61 235.616 114.676C235.62 114.705 235.718 114.649 237.191 113.008C238.664 111.368 241.534 108.126 243.32 106.167C245.105 104.208 245.72 103.63 246.093 103.295C246.466 102.96 246.577 102.886 246.635 102.894C246.693 102.902 246.693 102.995 245.807 104.637C244.922 106.278 243.152 109.464 242.212 111.18C241.197 113.034 241.14 113.254 241.168 113.283C241.205 113.322 241.326 113.144 242.306 111.838C243.286 110.532 245.131 108.035 246.137 106.693C247.143 105.351 247.255 105.239 247.378 105.098C247.501 104.956 247.631 104.789 246.291 106.295C244.952 107.802 242.138 110.988 240.67 112.658C239.202 114.327 239.165 114.383 239.136 114.375C239.108 114.366 239.089 114.292 239.685 113.238C240.281 112.184 241.492 110.153 242.163 109.06C242.9 107.858 243.265 107.443 243.66 106.906C243.809 106.703 243.868 106.65 243.822 106.677C243.777 106.704 243.628 106.816 242.647 107.712C241.667 108.608 239.859 110.285 238.807 111.279C237.755 112.274 237.513 112.534 237.416 112.66C237.319 112.785 237.375 112.766 238.866 111.694C240.358 110.623 243.283 108.498 244.828 107.376C246.372 106.254 246.446 106.198 246.438 106.244C246.43 106.29 246.337 106.439 245.087 107.95C243.837 109.462 241.433 112.331 240.158 113.875C238.882 115.418 238.808 115.549 238.807 115.588C238.806 115.627 238.88 115.571 239.981 114.033C241.081 112.495 243.205 109.476 244.328 107.893C245.45 106.31 245.506 106.255 245.516 106.263C245.526 106.271 245.489 106.346 243.96 108.164C242.432 109.982 239.413 113.541 238.93 114.191C238.446 114.841 240.589 112.475 241.711 111.228C242.878 109.931 242.965 109.793 243.013 109.68C243.028 109.643 242.93 109.641 242.025 110.321C241.12 111.001 239.387 112.362 238.327 113.221C236.909 114.37 236.567 114.779 236.622 114.882C236.744 115.108 237.205 114.987 237.552 114.921C237.734 114.887 237.918 114.8 238.666 114.24C239.414 113.68 240.719 112.636 241.428 112.071C242.137 111.505 242.212 111.449 241.179 112.483C240.146 113.516 238.003 115.64 236.834 116.818C235.516 118.146 235.288 118.449 235.091 118.655C234.938 118.815 234.836 118.976 234.807 119.005C234.628 119.186 235.564 118.097 236.373 117.27C236.917 116.712 237.168 116.475 237.375 116.351C237.43 116.319 237.488 116.286 237.507 116.313C237.577 116.412 237.47 116.586 237.479 116.661C237.523 117.027 238.52 115.856 238.9 115.608C238.957 115.571 239.012 115.515 239.069 115.477C239.174 115.406 238.96 115.997 238.452 117.031C237.874 118.21 237.565 118.599 237.527 118.694C237.49 118.786 237.695 118.376 238.377 117.284C238.973 116.327 240.046 114.533 240.742 113.472C241.439 112.411 241.718 112.131 241.853 112.034C241.947 111.966 241.465 112.852 240.703 114.028C240.416 114.471 240.37 114.626 240.322 114.731C240.275 114.835 240.238 114.891 241.103 113.467C241.969 112.042 243.739 109.135 244.679 107.61C245.619 106.085 245.675 106.029 245.704 106.046C245.733 106.064 245.733 106.157 244.922 107.761C244.112 109.365 242.49 112.477 241.478 114.369C240.466 116.261 240.112 116.838 239.958 117.061C239.803 117.284 239.859 117.135 240.391 116.164C240.923 115.193 241.929 113.404 242.736 112.091C243.544 110.778 244.121 109.996 244.512 109.49C244.903 108.985 245.089 108.78 245.055 108.898C245.02 109.016 244.759 109.463 244.364 110.057C243.473 111.395 242.891 112.182 242.844 112.294C242.82 112.353 242.778 112.407 242.852 112.361C242.926 112.315 243.113 112.166 243.656 111.493C244.199 110.82 245.093 109.628 245.368 109.339C245.642 109.051 245.27 109.703 244.547 110.719C243.824 111.736 242.762 113.096 242.196 113.824C241.63 114.553 241.593 114.609 242.114 114.088C242.635 113.567 243.716 112.468 244.599 111.622C245.481 110.776 246.134 110.217 246.497 109.911C246.912 109.561 247.031 109.491 247.097 109.491C247.135 109.49 247.07 109.639 246.417 110.544C245.764 111.45 244.497 113.145 243.835 114.047C243.173 114.948 243.155 115.004 243.154 114.996C243.151 114.911 243.49 114.109 244.221 112.505C244.627 111.615 245.213 110.621 245.585 109.982C246.299 108.755 246.485 108.55 246.579 108.512C246.617 108.496 246.562 108.697 246.114 109.408C245.666 110.118 244.809 111.385 244.237 112.308C243.35 113.739 243.079 114.495 242.995 114.796C242.958 114.927 242.966 115.022 243.013 115.08C243.059 115.137 243.152 115.156 243.247 115.137C243.445 115.099 243.754 114.838 244.549 114.08C245.144 113.514 246.034 112.485 246.542 111.911C247.551 110.769 248.254 109.981 248.311 109.97C248.36 109.962 248.33 110.165 248.106 110.699C247.883 111.232 247.436 112.145 247.168 112.652C246.753 113.439 246.356 113.892 246.138 114.093C245.72 114.477 246.672 113.238 247.564 112.392C247.891 112.083 248.104 111.994 248.216 111.947C248.337 111.897 247.846 112.626 246.934 113.924C246.376 114.662 246.091 115.06 245.922 115.351C245.846 115.475 245.79 115.55 245.733 115.683" stroke="#202020" stroke-linecap="round"/>
<path d="M243.994 55.8144C243.773 55.4833 243.332 55.1146 242.595 54.5986C242.057 54.2218 241.413 54.0439 240.77 53.8048C239.888 53.4771 238.32 53.3785 236.661 53.415C235.248 53.4461 234.474 54.2621 233.72 54.9242C232.505 55.991 231.266 57.5051 230.326 58.7396C229.263 60.1365 229.049 61.0515 228.679 61.9367C228.352 62.7178 228.198 63.6712 228.088 64.6461C227.957 65.7969 228.159 66.7725 228.49 67.5083C228.916 68.4562 229.817 69.318 230.682 70.1285C231.991 71.3545 232.882 71.5347 234.022 71.941C235.645 72.5196 237.564 72.5334 238.855 72.4969C240.221 72.4582 241.514 71.5413 242.331 70.9667C242.984 70.5076 243.73 69.6967 244.232 69.1027C244.646 68.6133 245.026 68.1067 245.321 67.5714C245.587 67.091 245.838 66.6673 245.968 66.0772C246.127 65.3527 246.098 64.0919 246.189 63.0883C246.297 61.91 246.024 61.4634 245.95 61.02C245.847 60.402 245.36 59.8026 245.212 59.3591C245.05 58.8714 244.807 58.3632 244.659 57.8279C244.474 57.3656 244.18 56.9238 243.792 56.5723C243.699 56.4798 243.626 56.3702 243.551 56.2573" stroke="#202020" stroke-linecap="round"/>
<path d="M235.6 55.1451C235.57 55.1451 235.541 55.1451 234.574 56.463C233.607 57.7809 231.704 60.4167 230.679 61.8477C229.555 63.4172 229.359 63.8397 229.24 64.2097C229.207 64.3111 229.355 64.2577 229.445 64.1836C229.793 63.896 230.095 63.4305 230.981 62.4117C231.197 62.1634 231.308 61.9822 232.583 60.5445C233.859 59.1068 236.29 56.4124 237.498 55.0683C238.707 53.7242 238.619 53.8121 238.53 53.8867C238.167 54.1894 237.82 54.5815 236.704 55.7699C235.744 56.7929 234.066 58.7447 232.473 60.7655C230.881 62.7862 229.446 64.8363 228.838 65.7606C228.231 66.6849 228.494 66.4213 228.703 66.227C229.326 65.6477 229.74 65.2046 231.295 63.7234C232.685 62.3996 235.252 59.87 236.623 58.5139C238.469 56.6888 239.06 56.0627 239.134 56.0033C239.521 55.695 238.322 56.8295 236.856 58.8822C235.513 60.7632 232.93 64.3322 231.558 66.2607C229.873 68.6301 229.567 69.2524 229.432 69.6104C229.392 69.7163 230.004 68.8477 231.651 66.9205C232.823 65.5484 234.82 63.4998 236.095 62.1943C237.861 60.385 238.527 59.8789 238.748 59.7023C239.346 59.2243 239.503 58.7855 239.77 58.4301C240.026 58.0886 240.214 57.8377 240.376 57.705C240.457 57.6385 240.509 57.543 239.002 59.5332C237.494 61.5234 234.419 65.5942 232.572 68.1013C230.724 70.6084 230.197 71.4284 229.867 71.968C229.536 72.5076 229.419 72.7419 229.417 72.8333C229.415 72.9532 229.829 72.5715 230.17 72.2596C230.325 72.118 230.539 71.8606 231.025 71.3898C231.824 70.6156 232.491 69.8203 233.974 68.2792C235.213 66.9913 237.36 64.6002 238.55 63.2757C240.175 61.4659 240.568 61.0344 240.909 60.722C241.124 60.525 240.452 61.2083 239.572 62.4548C238.786 63.5681 237.403 65.722 236.474 67.0723C235.545 68.4226 235.135 68.9204 234.616 69.6162C233.456 71.1716 232.761 72.213 232.701 72.2587C232.64 72.3052 232.875 71.9236 234.576 70.1917C236.277 68.4598 239.528 65.2676 241.246 63.5938C243.191 61.7001 243.526 61.4479 243.72 61.1803C243.771 61.1093 243.558 61.4745 242.546 62.8967C241.629 64.186 239.982 66.6911 238.961 68.2664C237.94 69.8416 237.618 70.4274 237.496 70.6852C237.374 70.943 237.461 70.8551 237.58 70.7074C238.099 70.0598 238.408 69.6127 240.148 67.7694C241.051 66.814 241.869 66.1515 242.181 65.8107C242.322 65.6561 242.58 65.4708 242.787 65.2929C242.839 65.2483 242.818 65.3492 242.291 66.0974C241.763 66.8455 240.738 68.2513 240.166 69.034C239.508 69.935 239.357 70.1718 239.371 70.3053C239.4 70.5902 240.797 69.3819 242.29 68.155C243.498 67.1622 244.442 66.4479 244.711 66.3268C245.263 66.0776 243.944 67.1828 243.617 67.7157C243.382 68.1007 243.203 68.5441 243.025 68.9142C242.911 69.1534 242.759 69.3438 242.714 69.4183C242.54 69.712 242.935 68.6666 243.201 68.2074C243.48 67.7253 243.763 66.9804 243.941 66.5212C244.106 66.0983 244.325 65.5605 244.474 65.1749C244.508 65.0871 244.533 64.9978 244.504 64.9672C244.424 64.8822 244.238 65.1718 243.884 65.5272C243.442 65.9711 242.263 66.7373 241.444 67.0519C241.345 67.0899 241.31 66.9502 241.324 66.8611C241.4 66.3833 242.046 65.8569 242.726 64.8079C243.182 64.1047 243.379 63.6666 243.586 63.2965C243.644 63.1921 243.704 63.0755 243.661 63.0152C243.412 62.6666 242.879 63.1909 242.096 63.545C241.365 63.8759 240.926 63.9896 240.497 64.1964C240.294 64.2943 240.127 64.4041 239.993 64.3899C239.931 64.3832 239.948 64.2293 239.977 64.125C240.103 63.678 241.095 62.5502 242.355 60.4766C242.616 60.0477 242.669 59.8496 242.714 59.7311C242.877 59.3 241.666 60.5569 241.193 60.9709C240.371 61.6897 239.833 62.2129 239.255 62.717C239.193 62.7711 239.208 62.6318 239.252 62.5275C239.494 61.9587 240.124 61.3592 240.627 60.7091C240.987 60.2433 241.425 59.7333 241.899 59.1556C242.117 58.8891 242.285 58.6959 242.285 58.5335C242.286 58.4535 242.169 58.4003 242.065 58.3995C241.518 58.3948 241.015 58.8121 240.586 59.0491C240.134 59.2985 239.419 59.6393 238.752 59.9956C238.622 60.0649 238.53 60.0848 238.543 60.0413C238.684 59.5805 239.148 59.318 239.577 58.7859C239.97 58.2987 240.301 57.9868 240.671 57.543C241.107 57.0206 241.633 56.6556 241.973 56.3738C242.297 56.1065 242.521 55.8852 242.596 55.8258C242.886 55.5939 241.698 56.6786 240.824 57.5386C240.379 57.9757 239.861 58.3382 239.432 58.6053C239.328 58.6648 239.24 58.7234 239.224 58.7096C239.208 58.6959 239.267 58.608 239.504 58.34" stroke="#202020" stroke-linecap="round"/>
<path d="M192.367 52.1901C192.183 52.2425 191.55 52.7683 190.965 53.4851C190.643 53.8805 190.226 54.6205 189.853 55.1936C189.652 55.5019 189.535 55.8945 189.363 56.3186C189.203 56.7114 188.848 57.7149 188.45 59.6096C188.216 60.7188 188.316 61.7926 188.434 63.4033C188.558 65.0992 189.11 66.0879 189.255 66.4179C189.406 66.7617 189.9 67.9854 190.759 69.757C191.741 71.7829 192.577 72.4149 193.066 72.9701C194.089 74.131 194.774 74.4005 195.922 74.9827C196.715 75.3845 197.657 75.5403 198.411 75.6594C198.873 75.7324 199.196 75.7262 199.801 75.7659C200.981 75.8433 202.08 75.7007 202.74 75.5292C203.769 75.2619 204.12 75.0391 205.493 74.3656C206.195 74.0211 206.794 73.4776 207.27 73.1202C208.002 72.5715 208.357 72.1274 208.701 71.7434C209.009 71.3996 209.624 70.5961 210.42 69.39C210.925 68.6247 210.898 68.0259 211.084 67.4679C211.143 67.2901 211.137 67.0704 211.177 65.9938C211.212 65.0488 211.191 63.2922 211.164 62.2958C211.126 60.8166 210.927 60.2422 210.715 59.6187C210.487 58.9474 210.134 58.0485 209.657 56.9719C209.359 56.3011 208.73 55.4751 208.373 54.9589C207.914 54.2963 207.327 54.0185 206.93 53.6742C206.357 53.1778 205.898 52.959 205.21 52.4832C204.779 52.1849 203.969 51.8486 203.342 51.6476C203.178 51.595 202.984 51.6079 202.668 51.542C202.146 51.433 200.744 51.3959 199.076 51.3828C198.243 51.3762 197.928 51.264 197.412 51.2239C196.243 51.133 194.275 51.21 193.957 51.3029C193.798 51.3164 193.639 51.3427 193.48 51.3955C193.4 51.4221 193.322 51.4483 193.241 51.4753" stroke="#A4A4A4" stroke-linecap="round"/>
</svg>
