<svg width="29" height="20" viewBox="0 0 29 20" fill="none" xmlns="http://www.w3.org/2000/svg">
<path d="M24.9907 18.1379C25.134 17.7057 25.855 16.8393 26.5445 15.7534C27.235 14.666 27.5228 13.7989 27.5608 11.1267C27.5788 9.86231 27.019 9.02125 26.4413 8.11567C25.6013 6.79885 24.3435 6.12425 23.4738 5.54442C22.6356 4.98565 21.5942 4.60409 20.4345 4.24033C19.2413 3.86606 17.9023 3.87875 15.3789 3.62467C9.17096 2.9996 8.12985 3.80491 7.18626 4.02099C6.22606 4.24088 5.23284 4.59974 4.32726 4.88966C3.28884 5.2221 2.26635 5.46841 1.39442 5.615C1.23398 5.64197 1.17617 5.32942 1.31842 5.03951C2.01821 3.61321 3.12633 3.15776 3.92224 2.6485C4.87561 2.0385 5.37183 1.41825 5.4815 1.16417C5.81007 0.402925 4.07317 2.49757 3.31309 3.18707C2.51279 3.91306 1.75818 4.8864 1.10342 5.54007C0.479806 6.16266 2.83532 6.33708 3.92116 6.84307C5.00961 7.35029 5.87566 7.64008 6.74541 8.14607C7.17866 8.43491 7.61516 8.65424 8.04841 8.83449C8.26666 8.94308 8.48166 9.08641 8.70317 9.23408" stroke="#202020" stroke-width="2" stroke-linecap="round"/>
</svg>
