<svg width="38" height="21" viewBox="0 0 38 21" fill="none" xmlns="http://www.w3.org/2000/svg">
<path d="M36.8958 10.4872C36.6456 10.4872 36.3954 10.4872 31.5761 10.4872C26.7567 10.4872 17.3757 10.4872 12.3555 10.5497C6.19814 10.9913 5.06105 11.3703 4.17981 11.5598C3.6738 11.6243 3.0484 11.6243 2.40405 11.2452" stroke="black" stroke-linecap="round"/>
<path d="M0.509033 11.2452C1.76362 10.2408 4.54191 7.9704 6.1888 6.63811C7.75711 5.36938 9.21914 4.55155 10.7372 3.73095C11.4933 3.41446 12.3802 2.78527 13.3259 1.96467C13.7713 1.64439 14.1465 1.51931 14.5331 1.39044" stroke="black" stroke-linecap="round"/>
<path d="M2.02515 11.6243C3.28353 11.7493 5.29996 12.5036 6.94685 13.5156C8.32036 14.3596 8.8401 15.9149 11.3644 17.6186C12.0012 18.064 12.5015 18.4392 13.0094 18.8827C13.5173 19.3262 14.0177 19.8265 14.9122 20.342" stroke="black" stroke-linecap="round"/>
</svg>
