<svg width="19" height="18" viewBox="0 0 19 18" xmlns="http://www.w3.org/2000/svg">
<path d="M3.06358 4.65547C3.65427 3.64015 4.50101 2.79848 5.08916 2.63116C5.85478 2.20525 7.22805 1.58366 8 1.5C10.0269 1.41634 10.669 1.02641 11.6844 1.40795C12.6997 1.95681 13.6753 2.52541 14.7265 3.09763L14.7301 3.09958C15.7452 3.65213 17.1786 4.43233 17.557 5.63404C18.2719 7.90427 18.2552 11.8668 17.5089 12.7756C16.7458 13.7047 15.7343 14.379 14.7189 15.0559C13.7036 15.7328 12.7817 16.7923 11.6767 17.1259C10.1443 17.5885 8.00915 17.6416 7.07038 16.994C5.84464 16.1486 4.87532 15.5878 3.81779 14.8392C2.80246 14.1205 1.58203 13.4986 1.15841 12.3433C1.03293 12.0011 1.01134 11.496 1.07602 11.1188C1.28644 9.89182 1.45629 8.71298 1.79474 7.69765C2.13318 6.68233 2.47225 5.67191 3.06358 4.65547Z" fill="#202020"/>
</svg>
