<svg width="20" height="19" viewBox="0 0 20 19" fill="none" xmlns="http://www.w3.org/2000/svg">
<path d="M5.08916 2.63115C4.50101 2.79847 3.65427 3.64014 3.06358 4.65547C2.47225 5.6719 2.13318 6.68232 1.79474 7.69765C1.45629 8.71298 1.28644 9.89182 1.07602 11.1188C1.01134 11.496 1.03293 12.0011 1.15841 12.3433C1.58203 13.4986 2.80246 14.1204 3.81779 14.8392C4.87532 15.5878 5.84464 16.1486 7.07038 16.994C8.00915 17.6416 10.1443 17.5885 11.6767 17.1259C12.7817 16.7923 13.7036 15.7328 14.7189 15.0559C15.7343 14.379 16.7458 13.7047 17.5089 12.7756C18.2552 11.8668 18.2719 7.90426 17.557 5.63404C17.1782 4.43091 15.7419 3.65028 14.7265 3.09762C13.6753 2.5254 12.6997 1.9568 11.6844 1.40794C10.669 1.0264 8.90456 0.856549 6.87771 0.940209C6.10576 1.02387 5.85478 1.19119 5.08916 1.61709" stroke="#202020" stroke-linecap="round"/>
<path d="M5.78229 3.7695C5.76051 3.7695 5.78196 3.74773 5.80423 3.73651C5.81746 3.72984 5.7394 3.79062 5.0744 4.54255C4.40941 5.29449 3.1355 6.75349 2.3867 7.6303C1.6379 8.50712 1.45281 8.75755 1.39012 8.87022C1.32743 8.9829 1.39276 8.95023 1.49174 8.87896C1.59072 8.8077 1.72138 8.69882 2.27865 8.10377C2.83592 7.50872 3.81584 6.4308 4.38054 5.79385C4.94523 5.1569 5.065 4.99358 5.29002 4.73524C6.18737 3.70499 6.30986 3.59397 6.35391 3.54976C6.38419 3.51937 6.29964 3.71374 5.72735 4.48795C5.20686 5.1921 4.18604 6.50339 3.64807 7.20386C3.1101 7.90432 3.07743 7.94787 3.09327 7.94853C3.10911 7.94919 3.17444 7.90564 4.42755 6.68007C5.68067 5.45451 8.11959 3.04825 8.31442 3.18056C8.50925 3.31286 6.38608 6.05665 5.27599 7.49734C4.16591 8.93802 4.13325 8.99246 4.10009 9.0314C4.06693 9.07033 4.03426 9.09211 4.00655 9.11966C3.97883 9.14721 3.95706 9.17987 4.02205 9.13681C4.08705 9.09376 4.23949 8.97399 5.08562 8.1229C5.93175 7.27182 7.46697 5.69306 8.28505 4.85798C9.15159 3.97344 9.24634 3.90181 9.30672 3.83599C9.33593 3.80414 9.35621 3.77016 8.52905 4.52094C7.70188 5.27172 6.02512 6.80694 5.09057 7.68491C4.15601 8.56288 4.01447 8.73709 3.93611 8.84317C3.85774 8.94924 3.84686 8.98191 3.92291 8.94429C3.99896 8.90668 4.16228 8.7978 5.41688 7.62024C6.67148 6.44268 9.01241 4.19974 10.2401 3.01707C11.4678 1.8344 11.5114 1.77996 11.5012 1.77369C11.4909 1.76742 11.4256 1.81097 9.91117 3.48295C8.39674 5.15492 5.43519 8.454 3.84966 10.2352C2.26413 12.0164 2.14436 12.1797 2.1371 12.2312C2.12984 12.2826 2.23873 12.2173 3.72115 10.6757C5.20357 9.13401 8.05624 6.11802 9.55302 4.54255C11.0498 2.96709 11.1042 2.92353 11.1486 2.88477C11.193 2.846 11.2257 2.81333 11.2098 2.85095C11.194 2.88856 11.1286 2.99744 9.91909 4.3982C8.70952 5.79897 6.35771 8.48831 5.13527 9.89007C3.91284 11.2918 3.89107 11.3245 3.89618 11.3304C3.9013 11.3364 3.93396 11.3146 5.66565 9.5885C7.39735 7.86242 10.8271 4.43268 12.5449 2.73118C14.2628 1.02967 14.1648 1.16033 12.5192 3.08949C10.8736 5.01866 7.68341 8.74237 6.03453 10.677C4.38565 12.6116 4.37476 12.6442 4.41815 12.6284C4.46154 12.6126 4.55953 12.5472 5.47016 11.6425C6.3808 10.7379 8.10111 8.99576 9.01455 8.07655C9.92799 7.15733 9.98243 7.11378 10.0431 7.05868C10.1722 6.94152 10.2909 6.82739 10.3897 6.74507C10.435 6.70736 10.4668 6.67364 9.59079 7.61496C8.7148 8.55628 6.92916 10.4726 5.99296 11.4815C5.05675 12.4905 5.02408 12.534 5.08892 12.4912C5.15375 12.4483 5.31707 12.3176 6.8221 10.7477C8.32712 9.17789 11.1689 6.17279 12.7145 4.54849C14.2601 2.92419 14.4234 2.77176 13.2663 4.24478C12.1092 5.7178 9.62676 8.82089 8.33702 10.4358C7.04728 12.0507 7.02551 12.0833 8.20653 10.7392C9.38755 9.39499 11.772 6.67298 13.0276 5.24896C14.2832 3.82493 14.3377 3.78138 14.4909 3.63918C14.6442 3.49697 14.8946 3.25743 15.0508 3.1177C15.207 2.97797 15.2615 2.94531 14.032 4.31671C12.8024 5.68811 10.2873 8.46456 8.84463 10.1017C7.40197 11.7389 7.10799 12.1526 6.94022 12.3984C6.66723 12.7984 6.62925 12.9085 6.62908 12.9526C6.62902 12.9682 6.67247 12.9531 6.7274 12.9148C6.78234 12.8765 6.85856 12.8112 7.80697 11.6996C8.75538 10.5881 10.5737 8.43222 11.5376 7.29987C12.5015 6.16751 12.556 6.12396 12.6112 6.0743C12.6665 6.02465 12.7209 5.97021 12.7327 5.98571C12.7444 6.00122 12.7117 6.08833 11.7258 7.43432C10.74 8.78031 8.80191 11.3826 7.77084 12.783C6.73978 14.1834 6.67445 14.3032 6.66801 14.3431C6.66158 14.383 6.71602 14.3395 7.93631 12.8199C9.15659 11.3004 11.5411 8.30619 12.8402 6.69839C14.1394 5.09058 14.2809 4.95993 14.3756 4.87629C14.4703 4.79265 14.5138 4.75998 14.5254 4.77582C14.5369 4.79166 14.5152 4.85699 14.4549 4.97775C14.3947 5.0985 14.2967 5.27271 13.0486 6.81601C11.8004 8.35931 9.40504 11.2664 8.15473 12.7912C6.90442 14.3161 6.87175 14.3705 6.83859 14.4149C6.80543 14.4593 6.77277 14.4919 8.2966 12.9354C9.82043 11.3789 12.9017 8.23228 14.4564 6.64395C16.0111 5.05561 15.9458 5.12094 14.4259 6.99467C12.906 8.86841 9.9336 12.5486 8.42412 14.4444C6.91464 16.3402 6.9582 16.3402 8.08033 15.099C9.20245 13.8578 11.4018 11.3753 12.7091 9.93312C14.0163 8.49095 14.3647 8.16431 14.566 7.98515C14.7672 7.806 14.8108 7.78422 14.8114 7.822C14.8121 7.85978 14.7686 7.95777 13.739 9.32026C12.7094 10.6827 10.6951 13.3068 9.30358 15.0178C7.91206 16.7289 7.20433 17.4475 6.86697 17.7959C6.5296 18.1444 6.58404 18.1008 7.71723 16.9787C8.85041 15.8566 11.0607 13.6572 12.3735 12.3173C13.6863 10.9774 14.0348 10.5636 14.2251 10.3342C14.4155 10.1047 14.4373 10.072 14.4322 10.0824C14.4271 10.0928 14.3944 10.1473 13.6916 11.079C12.9889 12.0108 11.617 13.8182 10.8612 14.8309C10.1055 15.8437 10.0075 16.007 9.93525 16.1184C9.82517 16.288 9.74191 16.3947 9.70875 16.4663C9.70153 16.4819 9.74092 16.4617 11.1623 14.7192C12.5837 12.9768 15.3928 9.51443 16.878 7.69266C18.3633 5.87089 18.4395 5.79468 18.4951 5.73364C18.5507 5.6726 18.5833 5.62905 17.6529 7.01117C16.7225 8.39329 14.8279 11.2024 14.3909 12.0235C13.9539 12.8445 15.0318 11.5924 15.9083 10.6534C16.7848 9.71437 17.4272 9.12642 17.7745 8.81265C18.1217 8.49887 18.1544 8.4771 18.1549 8.49854C18.1554 8.51999 18.1227 8.58532 17.3329 9.58801C16.543 10.5907 14.9969 12.5288 14.1732 13.5707C13.3495 14.6127 13.295 14.6998 13.3051 14.7338C13.3298 14.8173 13.5788 14.6473 14.3426 14.0364C15.0029 13.5084 16.1952 12.511 16.834 11.9896C17.4727 11.4683 17.5163 11.4466 17.5333 11.4571C17.5503 11.4677 17.5394 11.5112 16.9023 12.2795C16.2652 13.0478 15.0022 14.5394 14.3406 15.3242C13.6791 16.109 13.6573 16.1416 13.8094 15.9842C13.9615 15.8269 14.2882 15.4784 14.5163 15.2173C15.0649 14.5894 15.2397 14.3289 15.3888 13.9714C15.4374 13.8549 15.0338 13.8 14.4807 13.7505C14.1462 13.7206 13.6989 13.7337 13.4471 13.7392C13.1954 13.7446 13.1518 13.7555 13.3907 13.4018C13.6296 13.0481 14.1522 12.3295 14.4269 11.943C14.7016 11.5564 14.7125 11.5238 14.6963 11.5069C14.6801 11.4901 14.6366 11.4901 13.9935 12.1325C13.3505 12.7749 12.1092 14.0597 12.4225 13.5729C12.7358 13.086 14.6412 10.7887 15.6337 9.58339C16.6261 8.37811 16.6479 8.33456 16.082 8.93274C15.5162 9.53093 14.3621 10.7722 13.7512 11.4279C13.1403 12.0837 13.1076 12.1163 13.0962 12.0951C13.0849 12.0738 13.0958 11.9976 13.5151 11.1363C13.9345 10.2749 14.762 8.63085 15.1501 7.81111C15.5383 6.99137 15.4621 7.04581 14.9601 7.58015C14.4581 8.11449 13.5326 9.12708 13.0286 9.68682C12.4623 10.3158 12.3705 10.4449 12.2937 10.5326C12.2572 10.5743 12.2386 10.6204 12.2872 10.5884C12.3359 10.5564 12.4557 10.4475 12.8059 10.0648C13.1561 9.68204 13.7332 9.02876 14.0849 8.616C14.5578 8.06105 14.6686 7.8611 14.647 7.81705C14.6318 7.78614 14.5383 7.81655 14.4064 7.88205C14.2746 7.94754 14.0895 8.06731 13.2592 8.83129C12.4289 9.59527 10.9591 10.9998 10.191 11.7397C9.42285 12.4796 9.40108 12.5123 9.38442 12.4964C9.36775 12.4806 9.35687 12.4153 9.59079 11.8753C9.82472 11.3354 10.3038 10.3228 10.556 9.78482C10.8083 9.24685 10.8192 9.21418 10.7867 9.20824C10.7542 9.20231 10.6779 9.22408 10.0834 9.72526C9.48884 10.2264 8.37826 11.2064 7.78981 11.7221C7.17208 12.2634 7.10238 12.3037 7.04745 12.3095C7.02017 12.3124 7.01429 12.2391 7.16111 11.9007C7.30793 11.5624 7.6128 10.9418 7.7753 10.6057C7.93779 10.2697 7.94868 10.237 7.95973 10.2038C7.97079 10.1707 7.98167 10.138 7.56265 10.5295C7.14362 10.921 6.29436 11.7376 5.83508 12.1746C5.33661 12.6489 5.22205 12.7432 5.15573 12.766C5.11546 12.7798 5.22007 12.571 5.4116 12.2747C5.60313 11.9784 5.91888 11.5429 6.10332 11.2804C6.33806 10.9464 6.48506 10.7108 6.62281 10.5016C6.46494 10.6095 6.25575 10.8078 6.1406 10.9064C6.07989 10.9615 6.01457 11.0269 5.91426 11.0942" stroke="#202020" stroke-linecap="round"/>
</svg>
