<svg width="20" height="20" viewBox="0 0 20 20" fill="none" xmlns="http://www.w3.org/2000/svg">
<path d="M5.08916 3.63115C4.50101 3.79847 3.65427 4.64014 3.06358 5.65547C2.47225 6.6719 2.13318 7.68232 1.79474 8.69765C1.45629 9.71298 1.28644 10.8918 1.07602 12.1188C1.01134 12.496 1.03293 13.0011 1.15841 13.3433C1.58203 14.4986 2.80246 15.1204 3.81779 15.8392C4.87532 16.5878 5.84464 17.1486 7.07038 17.994C8.00915 18.6416 10.1443 18.5885 11.6767 18.1259C12.7817 17.7923 13.7036 16.7328 14.7189 16.0559C15.7343 15.379 16.7458 14.7047 17.5089 13.7756C18.2552 12.8668 18.2719 8.90426 17.557 6.63404C17.1782 5.43091 15.7419 4.65028 14.7265 4.09762C13.6753 3.5254 12.6997 2.9568 11.6844 2.40794C10.669 2.0264 8.90456 1.85655 6.87771 1.94021C6.10576 2.02387 5.85478 2.19119 5.08916 2.61709" stroke="#202020" stroke-width="2" stroke-linecap="round"/>
<path d="M5.78229 4.76947C5.76051 4.76947 5.78196 4.7477 5.80423 4.73648C5.81746 4.72981 5.7394 4.79059 5.0744 5.54252C4.40941 6.29446 3.1355 7.75346 2.3867 8.63027C1.6379 9.50709 1.45281 9.75752 1.39012 9.87019C1.32743 9.98286 1.39276 9.9502 1.49174 9.87893C1.59072 9.80767 1.72138 9.69879 2.27865 9.10374C2.83592 8.50869 3.81584 7.43077 4.38054 6.79382C4.94523 6.15687 5.065 5.99355 5.29002 5.73521C6.18737 4.70496 6.30986 4.59394 6.35391 4.54973C6.38419 4.51934 6.29964 4.71371 5.72735 5.48792C5.20686 6.19207 4.18604 7.50336 3.64807 8.20382C3.1101 8.90429 3.07743 8.94784 3.09327 8.9485C3.10911 8.94916 3.17444 8.90561 4.42755 7.68004C5.68067 6.45448 8.11959 4.04822 8.31442 4.18053C8.50925 4.31283 6.38608 7.05662 5.27599 8.49731C4.16591 9.93799 4.13325 9.99243 4.10009 10.0314C4.06693 10.0703 4.03426 10.0921 4.00655 10.1196C3.97883 10.1472 3.95706 10.1798 4.02205 10.1368C4.08705 10.0937 4.23949 9.97396 5.08562 9.12287C5.93175 8.27179 7.46697 6.69303 8.28505 5.85795C9.15159 4.97341 9.24634 4.90178 9.30672 4.83595C9.33593 4.80411 9.35621 4.77013 8.52905 5.52091C7.70188 6.27169 6.02512 7.80691 5.09057 8.68488C4.15601 9.56285 4.01447 9.73706 3.93611 9.84313C3.85774 9.94921 3.84686 9.98187 3.92291 9.94426C3.99896 9.90665 4.16228 9.79777 5.41688 8.62021C6.67148 7.44265 9.01241 5.19971 10.2401 4.01704C11.4678 2.83437 11.5114 2.77993 11.5012 2.77366C11.4909 2.76739 11.4256 2.81094 9.91117 4.48292C8.39674 6.15489 5.43519 9.45397 3.84966 11.2352C2.26413 13.0163 2.14436 13.1797 2.1371 13.2311C2.12984 13.2826 2.23873 13.2173 3.72115 11.6756C5.20357 10.134 8.05624 7.11799 9.55302 5.54252C11.0498 3.96706 11.1042 3.9235 11.1486 3.88474C11.193 3.84597 11.2257 3.8133 11.2098 3.85092C11.194 3.88853 11.1286 3.99741 9.91909 5.39817C8.70952 6.79894 6.35771 9.48828 5.13527 10.89C3.91284 12.2918 3.89107 12.3245 3.89618 12.3304C3.9013 12.3363 3.93396 12.3146 5.66565 10.5885C7.39735 8.86239 10.8271 5.43265 12.5449 3.73115C14.2628 2.02964 14.1648 2.1603 12.5192 4.08946C10.8736 6.01863 7.68341 9.74234 6.03453 11.6769C4.38565 13.6116 4.37476 13.6442 4.41815 13.6284C4.46154 13.6125 4.55953 13.5472 5.47016 12.6425C6.3808 11.7378 8.10111 9.99573 9.01455 9.07652C9.92799 8.1573 9.98243 8.11375 10.0431 8.05865C10.1722 7.94149 10.2909 7.82736 10.3897 7.74504C10.435 7.70733 10.4668 7.67361 9.59079 8.61493C8.7148 9.55625 6.92916 11.4725 5.99296 12.4815C5.05675 13.4905 5.02408 13.534 5.08892 13.4911C5.15375 13.4482 5.31707 13.3176 6.8221 11.7477C8.32712 10.1779 11.1689 7.17276 12.7145 5.54846C14.2601 3.92416 14.4234 3.77173 13.2663 5.24475C12.1092 6.71777 9.62676 9.82086 8.33702 11.4358C7.04728 13.0507 7.02551 13.0833 8.20653 11.7391C9.38755 10.395 11.772 7.67295 13.0276 6.24893C14.2832 4.8249 14.3377 4.78135 14.4909 4.63914C14.6442 4.49694 14.8946 4.2574 15.0508 4.11767C15.207 3.97794 15.2615 3.94528 14.032 5.31668C12.8024 6.68808 10.2873 9.46453 8.84463 11.1017C7.40197 12.7389 7.10799 13.1526 6.94022 13.3984C6.66723 13.7984 6.62925 13.9085 6.62908 13.9525C6.62902 13.9682 6.67247 13.953 6.7274 13.9148C6.78234 13.8765 6.85856 13.8112 7.80697 12.6996C8.75538 11.588 10.5737 9.43219 11.5376 8.29984C12.5015 7.16748 12.556 7.12393 12.6112 7.07427C12.6665 7.02462 12.7209 6.97018 12.7327 6.98568C12.7444 7.00119 12.7117 7.08829 11.7258 8.43429C10.74 9.78028 8.80191 12.3825 7.77084 13.783C6.73978 15.1834 6.67445 15.3032 6.66801 15.3431C6.66158 15.383 6.71602 15.3395 7.93631 13.8199C9.15659 12.3004 11.5411 9.30616 12.8402 7.69836C14.1394 6.09055 14.2809 5.9599 14.3756 5.87626C14.4703 5.79262 14.5138 5.75995 14.5254 5.77579C14.5369 5.79163 14.5152 5.85696 14.4549 5.97771C14.3947 6.09847 14.2967 6.27268 13.0486 7.81598C11.8004 9.35928 9.40504 12.2664 8.15473 13.7912C6.90442 15.316 6.87175 15.3705 6.83859 15.4148C6.80543 15.4592 6.77277 15.4919 8.2966 13.9354C9.82043 12.3789 12.9017 9.23225 14.4564 7.64392C16.0111 6.05558 15.9458 6.12091 14.4259 7.99464C12.906 9.86838 9.9336 13.5485 8.42412 15.4444C6.91464 17.3402 6.9582 17.3402 8.08033 16.099C9.20245 14.8577 11.4018 12.3753 12.7091 10.9331C14.0163 9.49092 14.3647 9.16428 14.566 8.98512C14.7672 8.80597 14.8108 8.78419 14.8114 8.82197C14.8121 8.85975 14.7686 8.95774 13.739 10.3202C12.7094 11.6827 10.6951 14.3067 9.30358 16.0178C7.91206 17.7289 7.20433 18.4475 6.86697 18.7959C6.5296 19.1443 6.58404 19.1008 7.71723 17.9786C8.85041 16.8565 11.0607 14.6571 12.3735 13.3172C13.6863 11.9774 14.0348 11.5636 14.2251 11.3341C14.4155 11.1047 14.4373 11.072 14.4322 11.0824C14.4271 11.0928 14.3944 11.1472 13.6916 12.079C12.9889 13.0107 11.617 14.8181 10.8612 15.8309C10.1055 16.8437 10.0075 17.007 9.93525 17.1183C9.82517 17.288 9.74191 17.3947 9.70875 17.4663C9.70153 17.4818 9.74092 17.4616 11.1623 15.7192C12.5837 13.9768 15.3928 10.5144 16.878 8.69263C18.3633 6.87086 18.4395 6.79465 18.4951 6.73361C18.5507 6.67257 18.5833 6.62902 17.6529 8.01114C16.7225 9.39326 14.8279 12.2024 14.3909 13.0234C13.9539 13.8445 15.0318 12.5924 15.9083 11.6534C16.7848 10.7143 17.4272 10.1264 17.7745 9.81262C18.1217 9.49884 18.1544 9.47707 18.1549 9.49851C18.1554 9.51996 18.1227 9.58529 17.3329 10.588C16.543 11.5907 14.9969 13.5287 14.1732 14.5707C13.3495 15.6126 13.295 15.6997 13.3051 15.7337C13.3298 15.8173 13.5788 15.6473 14.3426 15.0364C15.0029 14.5083 16.1952 13.5109 16.834 12.9896C17.4727 12.4683 17.5163 12.4465 17.5333 12.4571C17.5503 12.4676 17.5394 12.5112 16.9023 13.2795C16.2652 14.0477 15.0022 15.5394 14.3406 16.3242C13.6791 17.1089 13.6573 17.1416 13.8094 16.9842C13.9615 16.8268 14.2882 16.4784 14.5163 16.2173C15.0649 15.5893 15.2397 15.3289 15.3888 14.9714C15.4374 14.8549 15.0338 14.8 14.4807 14.7505C14.1462 14.7206 13.6989 14.7337 13.4471 14.7391C13.1954 14.7446 13.1518 14.7555 13.3907 14.4018C13.6296 14.0481 14.1522 13.3295 14.4269 12.9429C14.7016 12.5564 14.7125 12.5237 14.6963 12.5069C14.6801 12.4901 14.6366 12.4901 13.9935 13.1325C13.3505 13.7749 12.1092 15.0597 12.4225 14.5728C12.7358 14.086 14.6412 11.7886 15.6337 10.5834C16.6261 9.37808 16.6479 9.33453 16.082 9.93271C15.5162 10.5309 14.3621 11.7721 13.7512 12.4279C13.1403 13.0836 13.1076 13.1163 13.0962 13.095C13.0849 13.0737 13.0958 12.9975 13.5151 12.1362C13.9345 11.2749 14.762 9.63082 15.1501 8.81108C15.5383 7.99134 15.4621 8.04578 14.9601 8.58012C14.4581 9.11446 13.5326 10.127 13.0286 10.6868C12.4623 11.3157 12.3705 11.4448 12.2937 11.5326C12.2572 11.5742 12.2386 11.6204 12.2872 11.5884C12.3359 11.5564 12.4557 11.4475 12.8059 11.0647C13.1561 10.682 13.7332 10.0287 14.0849 9.61597C14.5578 9.06102 14.6686 8.86107 14.647 8.81702C14.6318 8.7861 14.5383 8.81652 14.4064 8.88202C14.2746 8.94751 14.0895 9.06728 13.2592 9.83126C12.4289 10.5952 10.9591 11.9998 10.191 12.7397C9.42285 13.4796 9.40108 13.5122 9.38442 13.4964C9.36775 13.4806 9.35687 13.4152 9.59079 12.8753C9.82472 12.3353 10.3038 11.3228 10.556 10.7848C10.8083 10.2468 10.8192 10.2142 10.7867 10.2082C10.7542 10.2023 10.6779 10.2241 10.0834 10.7252C9.48884 11.2264 8.37826 12.2063 7.78981 12.722C7.17208 13.2634 7.10238 13.3037 7.04745 13.3095C7.02017 13.3124 7.01429 13.2391 7.16111 12.9007C7.30793 12.5623 7.6128 11.9417 7.7753 11.6057C7.93779 11.2696 7.94868 11.237 7.95973 11.2038C7.97079 11.1707 7.98167 11.138 7.56265 11.5295C7.14362 11.9209 6.29436 12.7375 5.83508 13.1745C5.33661 13.6488 5.22205 13.7432 5.15573 13.766C5.11546 13.7798 5.22007 13.571 5.4116 13.2747C5.60313 12.9784 5.91888 12.5429 6.10332 12.2804C6.33806 11.9464 6.48506 11.7108 6.62281 11.5016C6.46494 11.6095 6.25575 11.8078 6.1406 11.9064C6.07989 11.9615 6.01457 12.0268 5.91426 12.0942" stroke="#202020" stroke-linecap="round"/>
</svg>
