<svg width="20" height="20" viewBox="0 0 20 20" fill="none" xmlns="http://www.w3.org/2000/svg">
<path d="M5.04864 3.63115C4.46048 3.79847 3.61374 4.64014 3.02305 5.65547C2.43172 6.6719 2.09265 7.68232 1.75421 8.69765C1.41577 9.71298 1.24591 10.8918 1.0355 12.1188C0.97081 12.496 0.992398 13.0011 1.11789 13.3433C1.5415 14.4986 2.76193 15.1204 3.77726 15.8392C4.83479 16.5878 5.80411 17.1486 7.02986 17.994C7.96862 18.6416 10.1037 18.5885 11.6362 18.1259C12.7411 17.7923 13.6631 16.7328 14.6784 16.0559C15.6937 15.379 16.7053 14.7047 17.4683 13.7756C18.2147 12.8668 18.2314 8.90426 17.5165 6.63404C17.1376 5.43091 15.7013 4.65028 14.686 4.09762C13.6347 3.5254 12.6592 2.9568 11.6438 2.40794C10.6285 2.0264 8.86404 1.85655 6.83718 1.94021C6.06523 2.02387 5.81425 2.19119 5.04864 2.61709" stroke="#202020" stroke-width="2" stroke-linecap="round"/>
</svg>
