<svg width="19" height="18" viewBox="0 0 19 18" fill="none" xmlns="http://www.w3.org/2000/svg">
<path d="M5.04864 2.63115C4.46048 2.79847 3.61374 3.64014 3.02305 4.65547C2.43172 5.6719 2.09265 6.68232 1.75421 7.69765C1.41577 8.71298 1.24591 9.89182 1.0355 11.1188C0.97081 11.496 0.992398 12.0011 1.11789 12.3433C1.5415 13.4986 2.76193 14.1204 3.77726 14.8392C4.83479 15.5878 5.80411 16.1486 7.02986 16.994C7.96862 17.6416 10.1037 17.5885 11.6362 17.1259C12.7411 16.7923 13.6631 15.7328 14.6784 15.0559C15.6937 14.379 16.7053 13.7047 17.4683 12.7756C18.2147 11.8668 18.2314 7.90426 17.5165 5.63404C17.1376 4.43091 15.7013 3.65028 14.686 3.09762C13.6347 2.5254 12.6592 1.9568 11.6438 1.40794C10.6285 1.0264 8.86404 0.856549 6.83718 0.940209C6.06523 1.02387 5.81425 1.19119 5.04864 1.61709" stroke="#202020" stroke-linecap="round"/>
</svg>
