<svg width="38" height="36" viewBox="0 0 38 36" fill="none" xmlns="http://www.w3.org/2000/svg">
<path d="M4.89261 7.85668C6.17516 5.6676 8.01367 3.85292 9.29072 3.49218C10.9531 2.57391 13.9348 1.23373 15.611 1.05335C20.0118 0.87298 21.4062 0.0322711 23.6107 0.854887C25.8153 2.03825 27.9336 3.26417 30.2161 4.4979L30.2239 4.50212C32.428 5.69343 35.5402 7.37557 36.3619 9.96652C37.9142 14.8612 37.8778 23.4046 36.2573 25.3639C34.6005 27.3672 32.4042 28.8211 30.1996 30.2805C27.9951 31.7399 25.9933 34.0242 23.5942 34.7434C20.2667 35.7409 15.6308 35.8552 13.5925 34.4591C10.9311 32.6363 8.82641 31.4271 6.5302 29.8131C4.32564 28.2636 1.67575 26.9229 0.755967 24.432C0.483493 23.6941 0.43662 22.6052 0.57707 21.792C1.03394 19.1465 1.40275 16.6048 2.1376 14.4157C2.87245 12.2267 3.60866 10.0482 4.89261 7.85668Z" stroke="#202020" stroke-linecap="round"/>
<path d="M14.3123 11.6972C14.3123 11.1762 14.3941 9.94501 14.7135 9.33714C15.103 8.59579 15.9216 8.21546 16.9218 7.79934C17.7369 7.46026 19.1012 7.41332 20.2476 7.68807C22.0869 8.12893 22.4105 9.28077 22.7378 10.0953C22.9667 10.6651 22.9729 11.2569 22.9729 11.6715C22.973 12.3038 21.9561 13.3372 20.2213 14.9637C19.0607 16.0519 18.4607 16.8458 18.3948 17.2525C18.3612 18.6498 18.4982 19.2777 18.652 19.983C18.7072 20.2966 18.7158 20.5202 18.7626 20.7713" stroke="black" stroke-linecap="round"/>
<path d="M18.5139 27.2213H18.5" stroke="black" stroke-linecap="round"/>
</svg>
