<svg width="46" height="40" viewBox="0 0 46 40" fill="none" xmlns="http://www.w3.org/2000/svg">
<path d="M10.2771 22.4841C9.87206 21.6324 8.5734 19.3863 7.84707 18.3963C7.14039 17.433 6.70633 16.2747 6.05761 13.3814C5.48102 10.8098 6.24184 9.56886 6.62103 8.31365C7.16669 6.50732 8.4226 5.64851 9.72546 4.63501C11.3726 3.3537 13.8679 2.67616 18.2367 1.57871C19.9856 1.13939 21.3519 1.01128 28.116 1.00004C32.6715 0.99247 33.7026 2.0778 34.9494 2.73956C36.3299 3.47224 37.3432 4.50279 38.2318 5.38362C39.303 6.4455 40.2048 7.77104 41.0641 8.91259C42.0711 10.2504 42.7399 12.1693 43.8418 15.1236C44.8863 17.9241 45.1011 20.1167 45.2099 21.1709C45.3259 22.2937 45.3515 23.9127 44.9129 26.0977C44.4099 28.6032 43.1969 29.5055 42.3327 30.5456C41.4563 31.6004 39.4896 32.2505 37.9799 32.8142C36.8473 33.2372 33.6361 35.1274 31.5437 36.3844C30.6604 37.0145 29.4887 37.7868 28.4894 38.5004C28.275 38.6916 28.0639 38.918 27.8464 39.1513" stroke="black" stroke-linecap="round"/>
<path d="M11.0993 23.4542C11.1565 23.1107 11.3881 21.6973 12.4269 19.4479C13.485 17.1568 14.0819 15.3588 14.1275 15.084C14.3534 13.7221 13.0211 17.5416 12.3806 19.5607C11.9407 20.9476 11.6475 22.3556 11.1742 23.3516C10.6425 24.4707 8.96444 23.638 7.64943 23.409C6.33424 23.18 4.66753 22.7927 3.20717 22.5418C2.91001 22.4898 2.64519 22.4462 2.37635 22.4046C2.10751 22.3629 1.84269 22.3245 1 22.211" stroke="black" stroke-linecap="round"/>
</svg>
