<svg width="44" height="39" viewBox="0 0 44 39" fill="none" xmlns="http://www.w3.org/2000/svg">
<path d="M15.1463 15.1937C15.1463 15.1793 15.1721 14.9726 16.4498 12.3895C17.6434 9.9765 20.1793 5.44339 21.4851 3.14123C22.791 0.839058 22.85 0.935262 22.8931 1.04553C22.9811 1.27064 23.0299 1.52855 23.6887 3.05214C24.2948 4.45392 25.4946 7.11402 26.315 9.20175C27.1353 11.2895 27.5505 12.7196 27.7868 13.5038C28.0232 14.2879 28.0682 14.3827 30.4628 14.339C32.8573 14.2952 37.6001 14.1101 40.1684 13.9994C42.7367 13.8887 42.9868 13.858 42.9995 13.8893C43.0122 13.9205 42.7799 14.0147 41.7422 14.4586C40.7045 14.9026 38.8684 15.6934 36.9812 16.4898C35.094 17.2862 33.2113 18.0642 32.0753 18.5528C30.1099 19.3981 29.506 19.7084 29.0348 20.0833C28.8696 20.2148 28.9511 20.3275 29.4675 22.6727C29.9839 25.0178 30.9575 29.6177 31.4169 31.96C31.8763 34.3023 31.792 34.2475 31.708 34.1574C31.5236 33.9595 30.8923 33.1778 29.632 31.6279C28.9089 30.7387 28.1359 29.5493 27.1396 28.102C26.1434 26.6547 24.978 24.962 24.3394 24.1236C23.7008 23.2851 23.6243 23.3521 22.4958 25.2818C21.3674 27.2114 19.1894 31.0017 18.007 33.0719C16.6934 35.3718 16.4688 35.8109 16.2052 36.3097C15.558 37.5342 15.4344 37.8615 15.2887 37.9926C15.2372 38.039 15.167 37.9271 15.1329 35.8909C15.0988 33.8548 15.0865 29.8678 15.0858 27.6048C15.0851 25.3418 15.0964 24.9236 15.0502 24.6942C15.004 24.4648 14.9001 24.437 13.4544 23.6746C12.0087 22.9122 9.2243 21.4162 7.51157 20.4488C5.79884 19.4814 5.24213 19.088 4.5598 18.67C2.18552 17.2154 1.6525 17.0838 1.22159 16.8641C1.11537 16.8099 1.01215 16.7807 1.00313 16.7358C0.922088 16.3322 2.43331 16.4708 3.5477 16.3398C5.23322 16.1417 6.86789 15.9044 8.02718 15.7426C10.4898 15.3989 11.4742 15.2099 12.5471 15.0892C12.8948 15.0505 13.3204 15.0007 13.7246 14.97C14.1288 14.9393 14.4986 14.9292 14.8796 14.9188" stroke="black" stroke-linecap="round"/>
</svg>
