<svg width="68" height="35" viewBox="0 0 68 35" fill="none" xmlns="http://www.w3.org/2000/svg">
<path d="M6.05815 6.26012C5.7927 7.06049 4.98832 8.66524 4.11757 10.276C3.29928 11.7898 2.71191 13.757 2.1046 16.8338C1.35757 20.6184 2.30167 23.5504 2.77022 24.3528C3.6353 25.8342 5.51117 27.4316 7.2587 28.4451C8.99973 29.4548 11.1419 30.2549 12.9558 30.7919C15.112 31.4301 17.3115 31.4615 19.055 31.9321C21.2671 32.5291 24.8003 32.4027 28.4301 32.7365C32.4017 33.1017 35.4142 32.9376 38.0747 33.1387C49.19 33.9788 51.0957 32.5394 52.7728 32.0025C54.696 31.3868 56.5897 30.9306 58.3372 30.3937C60.0047 29.8814 61.5527 28.9197 63.0971 27.9162C64.7066 26.8705 65.3092 24.769 65.9829 23.0919C66.8313 20.9796 66.7893 13.4272 66.0553 9.08151C65.7687 7.38478 64.6496 5.86597 62.8417 4.72174C61.2276 3.70009 59.1556 3.58152 57.211 2.71077C55.4675 1.93007 52.7286 1.836 50.6412 1.50218C49.65 1.34367 48.5619 1.30109 41.6522 1.09999C35.2758 0.914412 23.0629 1.03162 16.5735 1.09798C9.68593 1.29706 8.87752 1.56653 8.07515 1.83399C7.67094 1.96873 7.27277 2.10145 6.46034 3.04258" stroke="#202020" stroke-width="2" stroke-linecap="round"/>
<path d="M45.9376 6.62541C45.8302 6.62541 45.1844 6.62541 44.1823 6.70593C42.9552 6.80454 42.4694 8.08619 42.0351 8.73768C41.6008 9.38917 41.1681 10.0382 40.7337 10.8516C40.2987 11.6662 40.0814 12.3156 39.9196 12.9671C39.754 13.6336 39.4861 14.4824 39.4039 15.5414C39.2802 17.1365 39.3754 19.3104 39.9163 20.1238C40.4941 20.9926 41.2169 21.6952 42.0026 22.6712C43.1478 24.0938 43.9823 24.3532 44.7688 24.816C45.391 25.1821 46.097 25.2771 46.7485 25.3593C47.4216 25.4442 51.592 25.6578 54.0686 25.5228C54.7242 25.487 55.3692 25.2251 56.0206 25.0079C56.6721 24.7908 57.2138 24.3597 57.7832 23.8432C58.3581 23.3216 58.6779 22.5703 59.0854 21.9188C59.4914 21.2696 59.8166 20.3482 60.089 19.4796C60.357 18.6252 60.4152 15.2762 60.2533 13.2973C60.1973 12.6129 59.7124 11.9968 59.1976 11.2916C58.4609 10.2826 57.8157 9.82676 57.1642 9.39243C56.5127 8.9581 55.7563 8.5254 55.0495 8.09107C54.3824 7.68113 53.749 7.22404 53.0975 6.81655C52.5074 6.44748 51.7969 6.35538 50.9039 6.16506C49.8546 6.1374 49.0299 6.08372 48.3565 6.00239C47.844 5.97473 46.9851 5.97473 46.1002 5.97473" stroke="#202020" stroke-width="2" stroke-linecap="round"/>
<path d="M45.3 7.46954C45.1962 7.57339 45.0648 7.73074 44.4665 8.7708C43.9323 9.69928 42.9854 11.4725 42.4646 12.4468C41.6847 13.9059 41.3931 14.5486 41.2751 14.8637C41.2441 14.9464 41.1838 15.0206 41.17 15.0218C41.0926 15.0284 41.2869 14.787 42.1708 13.8771C42.9779 13.0462 44.5085 11.4614 45.3366 10.5937C46.4084 9.47046 46.7665 9.15001 47.1213 8.86049C47.3287 8.69122 47.5021 8.51905 47.659 8.40143C47.8293 8.27387 47.351 8.93051 46.46 10.1881C45.9523 10.9047 45.643 11.4528 44.7182 12.924C43.9808 14.0971 42.7809 16.1866 42.1393 17.2955C41.4977 18.4044 41.4717 18.4823 42.6656 17.0166C43.8595 15.5509 46.274 12.5393 47.5568 10.9489C49.0377 9.11281 49.2589 8.80857 49.4819 8.49348C49.7238 8.15173 49.941 7.94237 50.0719 7.87629C50.197 7.81318 49.9701 8.4624 48.4871 10.7526C47.2312 12.692 44.8752 16.1583 43.6325 18.0413C42.3899 19.9244 42.312 20.1061 42.155 20.4204C41.775 21.1814 41.4977 21.7087 41.4194 21.9046C41.3715 22.0244 41.2892 22.1783 42.8717 20.4283C44.4543 18.6782 47.6995 15.0175 49.4233 13.0538C51.2695 10.9506 51.4358 10.6959 51.5797 10.539C51.8899 10.2009 52.2736 9.54495 52.5631 9.10989C52.7115 8.88698 52.8786 8.72911 52.9569 8.58513C52.9972 8.51108 53.0871 8.46712 52.1407 10.1149C51.1942 11.7628 49.2211 15.1119 48.1397 16.98C46.9019 19.1185 46.7429 19.5837 46.5993 19.9365C46.2737 20.7368 45.9577 21.39 45.7595 21.9439C45.6066 22.3709 45.5101 22.6528 45.5356 22.6799C45.5852 22.7325 45.717 22.4474 46.7964 21.1595C47.8758 19.8716 49.9008 17.4831 50.996 16.1748C52.2106 14.7236 52.4318 14.4204 52.8102 13.99C53.9606 12.6817 54.1885 12.1396 54.4253 11.7978C54.641 11.4865 55.0004 10.9611 55.3037 10.4607C55.4353 10.2437 55.5535 10.0666 55.5799 9.98749C55.5803 9.98631 55.5543 10.0642 54.4635 11.6491C53.3727 13.234 51.2178 16.3235 50.0428 18.0578C48.6941 20.0487 48.5004 20.5278 48.2782 20.8936C47.805 21.6726 47.6099 22.2822 47.4116 22.7963C47.2492 23.2175 47.0056 23.6747 46.8086 24.1204C46.7629 24.2238 46.7429 24.3041 46.7555 24.3053C47.333 24.3594 48.0245 23.0241 49.4308 21.5261C50.5349 20.35 52.4986 18.3926 53.5536 17.3112C54.9203 15.9104 55.2113 15.5226 55.6043 15.0379C56.4595 13.9833 56.6022 13.3716 56.8379 12.9912C56.894 12.9006 56.9169 12.8209 56.8914 12.8197C56.8658 12.8186 56.7879 12.8964 55.9949 13.988C55.2019 15.0796 53.696 17.1826 52.8035 18.4736C51.3009 20.6471 51.0967 21.0517 50.8866 21.3936C50.7878 21.5543 50.7025 21.7087 50.6502 21.8656C50.6238 21.9447 50.5979 22.0226 51.9865 20.492C53.3751 18.9614 56.179 15.82 57.6494 14.1627C59.1198 12.5054 59.1717 12.4276 59.1465 12.5302C59.1214 12.6329 59.0175 12.9185 58.7174 13.5459C58.4172 14.1733 57.924 15.1339 57.2285 16.3298C56.533 17.5256 55.6503 18.9276 55.1826 19.6887C54.6729 20.5182 54.5323 20.7638 54.3097 21.0388C54.1558 21.2288 54.8384 20.6151 56.4071 19.1506C58.1393 17.5335 59.2244 16.7011 59.3554 16.6743C59.413 16.6626 59.4345 16.8034 59.0065 17.7526C58.5785 18.7018 57.6958 20.4932 57.1632 21.5328C56.128 23.5535 55.5016 24.5409 55.4623 24.594C55.4455 24.6166 55.4489 24.4394 55.8383 23.6586C56.2278 22.8778 57.0066 21.4498 57.4468 20.6623C58.2189 19.281 58.7264 18.4846 58.6623 18.4705C58.189 18.3659 57.3693 19.5011 56.1141 20.6906C54.7127 22.0187 53.903 22.9147 53.5765 23.2019C53.3746 23.3795 53.1202 23.6448 52.9864 23.7137C52.8527 23.7825 52.8527 23.6527 52.8656 23.5079C52.8786 23.3632 52.9046 23.2074 53.4242 22.1406C53.9439 21.0738 54.9564 19.1006 55.7766 17.6298C56.5967 16.159 57.1939 15.2504 57.5274 14.7303C58.1633 13.739 58.4644 13.0562 58.4519 12.9511C58.4462 12.9043 58.3095 12.9499 57.0228 14.2484C55.736 15.547 53.2696 18.1172 51.9341 19.4932C50.2885 21.1888 49.6837 21.6276 49.2349 21.9447C49.1572 21.9995 49.0779 22.0493 49.0637 22.0112C49.0496 21.973 49.1015 21.8432 49.8422 20.7898C50.5829 19.7363 52.0109 17.7632 52.7984 16.6948C53.9058 15.1924 54.3978 14.5785 54.6743 14.2237C54.9764 13.8361 55.1594 13.4503 55.2392 13.2131C55.2803 13.091 54.9257 13.4739 53.6256 14.6827C52.4469 15.7787 50.2486 17.8906 49.0858 19.0129C47.5512 20.4941 46.9529 20.9746 46.8479 21.0014C46.5101 21.0874 47.1087 20.3468 47.733 19.4236C48.2846 18.6078 49.2919 17.0724 49.9693 16.0886C50.929 14.6948 51.5907 13.8468 52.1017 13.0739C52.3864 12.6432 52.5112 12.4268 52.538 12.3607C52.603 12.2001 52.1981 12.7131 50.8595 14.0911C49.6361 15.3504 47.2621 17.7018 46.0191 18.9578C44.4896 20.5032 44.0428 20.9479 43.7143 21.2236C43.6646 21.2654 43.7785 20.9762 44.9346 18.9755C46.0327 17.0752 48.1936 13.3921 49.3167 11.454C50.4397 9.51584 50.4657 9.43796 50.2454 9.63149C50.0251 9.82503 49.5578 10.2924 48.9666 10.9225C47.6585 12.3168 46.9002 13.2119 46.8605 13.317C46.8727 13.3441 46.9506 13.3181 47.0296 13.2918C47.1087 13.2654 47.1866 13.2395 47.2668 13.2127" stroke="#202020" stroke-width="2" stroke-linecap="round"/>
</svg>
