<svg width="67" height="35" viewBox="0 0 67 35" fill="none" xmlns="http://www.w3.org/2000/svg">
<path d="M5.27202 6.26012C5.00657 7.06049 4.20219 8.66524 3.33144 10.276C2.51315 11.7898 1.92577 13.757 1.31846 16.8338C0.571434 20.6184 1.51554 23.5504 1.98409 24.3528C2.84916 25.8342 4.72504 27.4316 6.47256 28.4451C8.2136 29.4548 10.3557 30.2549 12.1696 30.7919C14.3258 31.4301 16.5254 31.4615 18.2689 31.9321C20.481 32.5291 24.0142 32.4027 27.644 32.7365C31.6156 33.1017 34.6281 32.9376 37.2886 33.1387C48.4038 33.9788 50.3096 32.5394 51.9867 32.0025C53.9099 31.3868 55.8035 30.9306 57.5511 30.3937C59.2186 29.8814 60.7666 28.9197 62.311 27.9162C63.9204 26.8705 64.5231 24.769 65.1967 23.0919C66.0452 20.9796 66.0031 13.4272 65.2691 9.08151C64.9826 7.38478 63.8635 5.86597 62.0556 4.72174C60.4414 3.70009 58.3695 3.58152 56.4249 2.71077C54.6814 1.93007 51.9425 1.836 49.8551 1.50218C48.8639 1.34367 47.7758 1.30109 40.8661 1.09999C34.4896 0.914412 22.2767 1.03162 15.7873 1.09798C8.8998 1.29706 8.09139 1.56653 7.28901 1.83399C6.88481 1.96873 6.48664 2.10145 5.67421 3.04258" stroke="#202020" stroke-width="2" stroke-linecap="round"/>
<path d="M13.6517 6.51817C13.5443 6.51817 12.8985 6.51817 11.8965 6.59869C10.6694 6.6973 10.1835 7.97895 9.74921 8.63044C9.31488 9.28193 8.88218 9.93099 8.44785 10.7443C8.01285 11.559 7.79554 12.2084 7.63369 12.8599C7.46811 13.5263 7.20017 14.3751 7.11802 15.4341C6.99428 17.0293 7.08956 19.2032 7.63043 20.0165C8.20819 20.8853 8.93098 21.5879 9.71668 22.5639C10.8619 23.9866 11.6964 24.2459 12.4829 24.7087C13.1051 25.0749 13.8111 25.1699 14.4626 25.2521C15.1357 25.3369 19.3061 25.5506 21.7827 25.4155C22.4383 25.3798 23.0833 25.1179 23.7348 24.9007C24.3863 24.6835 24.9279 24.2525 25.4973 23.736C26.0722 23.2144 26.392 22.4631 26.7995 21.8116C27.2055 21.1624 27.5307 20.241 27.8031 19.3724C28.0711 18.518 28.1293 15.169 27.9674 13.1901C27.9114 12.5056 27.4266 11.8895 26.9117 11.1844C26.175 10.1753 25.5298 9.71952 24.8783 9.28519C24.2268 8.85086 23.4704 8.41816 22.7636 7.98383C22.0965 7.57389 21.4631 7.1168 20.8116 6.70931C20.2215 6.34025 19.511 6.24814 18.618 6.05782C17.5688 6.03016 16.744 5.97648 16.0706 5.89515C15.5582 5.86749 14.6993 5.86749 13.8143 5.86749" stroke="#202020" stroke-width="2" stroke-linecap="round"/>
</svg>
