<svg width="67" height="34" viewBox="0 0 67 34" fill="none" xmlns="http://www.w3.org/2000/svg">
<path d="M5.31279 6.26012C5.04734 7.06049 4.24296 8.66524 3.37221 10.276C2.55392 11.7898 1.96655 13.757 1.35923 16.8338C0.612206 20.6184 1.55631 23.5504 2.02486 24.3528C2.88993 25.8342 4.76581 27.4316 6.51333 28.4451C8.25437 29.4548 10.3965 30.2549 12.2104 30.7919C14.3666 31.4301 16.5661 31.4615 18.3097 31.9321C20.5218 32.5291 24.055 32.4027 27.6848 32.7365C31.6563 33.1017 34.6688 32.9376 37.3293 33.1387C48.4446 33.9788 50.3503 32.5394 52.0275 32.0025C53.9506 31.3868 55.8443 30.9306 57.5918 30.3937C59.2593 29.8814 60.8074 28.9197 62.3518 27.9162C63.9612 26.8705 64.5638 24.769 65.2375 23.0919C66.086 20.9796 66.0439 13.4272 65.3099 9.08151C65.0233 7.38478 63.9042 5.86597 62.0964 4.72174C60.4822 3.70009 58.4103 3.58152 56.4657 2.71077C54.7222 1.93007 51.9832 1.836 49.8959 1.50218C48.9047 1.34367 47.8165 1.30109 40.9069 1.09999C34.5304 0.914412 22.3175 1.03162 15.8281 1.09798C8.94057 1.29706 8.13216 1.56653 7.32979 1.83399C6.92558 1.96873 6.52741 2.10145 5.71498 3.04258" stroke="#202020" stroke-linecap="round"/>
<path d="M13.6922 6.51817C13.5848 6.51817 12.939 6.51817 11.937 6.59869C10.7099 6.6973 10.2241 7.97895 9.78974 8.63044C9.35541 9.28193 8.92271 9.93099 8.48838 10.7443C8.05337 11.559 7.83607 12.2084 7.67422 12.8599C7.50864 13.5263 7.2407 14.3751 7.15855 15.4341C7.03481 17.0293 7.13008 19.2032 7.67096 20.0165C8.24872 20.8853 8.97151 21.5879 9.7572 22.5639C10.9024 23.9866 11.7369 24.2459 12.5234 24.7087C13.1456 25.0749 13.8516 25.1699 14.5031 25.2521C15.1763 25.3369 19.3466 25.5506 21.8232 25.4155C22.4788 25.3798 23.1238 25.1179 23.7753 24.9007C24.4268 24.6835 24.9685 24.2525 25.5378 23.736C26.1128 23.2144 26.4325 22.4631 26.84 21.8116C27.2461 21.1624 27.5712 20.241 27.8437 19.3724C28.1116 18.518 28.1698 15.169 28.008 13.1901C27.952 12.5056 27.4671 11.8895 26.9522 11.1844C26.2155 10.1753 25.5703 9.71952 24.9189 9.28519C24.2674 8.85086 23.5109 8.41816 22.8041 7.98383C22.137 7.57389 21.5036 7.1168 20.8521 6.70931C20.262 6.34025 19.5516 6.24814 18.6585 6.05782C17.6093 6.03016 16.7845 5.97648 16.1111 5.89515C15.5987 5.86749 14.7398 5.86749 13.8549 5.86749" stroke="#202020" stroke-linecap="round"/>
</svg>
