<svg width="67" height="34" viewBox="0 0 67 34" fill="none" xmlns="http://www.w3.org/2000/svg">
<path d="M5.09868 6.26012C4.83323 7.06049 4.02885 8.66524 3.1581 10.276C2.33981 11.7898 1.75243 13.757 1.14512 16.8338C0.398094 20.6184 1.3422 23.5504 1.81075 24.3528C2.67582 25.8342 4.5517 27.4316 6.29922 28.4451C8.04026 29.4548 10.1824 30.2549 11.9963 30.7919C14.1525 31.4301 16.352 31.4615 18.0955 31.9321C20.3077 32.5291 23.8409 32.4027 27.4707 32.7365C31.4422 33.1017 34.4547 32.9376 37.1152 33.1387C48.2305 33.9788 50.1362 32.5394 51.8134 32.0025C53.7365 31.3868 55.6302 30.9306 57.3777 30.3937C59.0452 29.8814 60.5932 28.9197 62.1377 27.9162C63.7471 26.8705 64.3497 24.769 65.0234 23.0919C65.8718 20.9796 65.8298 13.4272 65.0958 9.08151C64.8092 7.38478 63.6901 5.86597 61.8823 4.72174C60.2681 3.70009 58.1962 3.58152 56.2516 2.71077C54.5081 1.93007 51.7691 1.836 49.6818 1.50218C48.6906 1.34367 47.6024 1.30109 40.6927 1.09999C34.3163 0.914412 22.1034 1.03162 15.614 1.09798C8.72646 1.29706 7.91805 1.56653 7.11567 1.83399C6.71147 1.96873 6.3133 2.10145 5.50087 3.04258" stroke="#202020" stroke-linecap="round"/>
<path d="M44.9781 6.62541C44.8707 6.62541 44.2249 6.62541 43.2229 6.70593C41.9958 6.80454 41.51 8.08619 41.0756 8.73768C40.6413 9.38917 40.2086 10.0382 39.7743 10.8516C39.3393 11.6662 39.122 12.3156 38.9601 12.9671C38.7945 13.6336 38.5266 14.4824 38.4444 15.5414C38.3207 17.1365 38.416 19.3104 38.9569 20.1238C39.5346 20.9926 40.2574 21.6952 41.0431 22.6712C42.1883 24.0938 43.0228 24.3532 43.8093 24.816C44.4315 25.1821 45.1375 25.2771 45.789 25.3593C46.4622 25.4442 50.6325 25.6578 53.1091 25.5228C53.7647 25.487 54.4097 25.2251 55.0612 25.0079C55.7127 24.7908 56.2544 24.3597 56.8237 23.8432C57.3987 23.3216 57.7184 22.5703 58.1259 21.9188C58.5319 21.2696 58.8571 20.3482 59.1296 19.4796C59.3975 18.6252 59.4557 15.2762 59.2938 13.2973C59.2379 12.6129 58.753 11.9968 58.2381 11.2916C57.5014 10.2826 56.8562 9.82676 56.2047 9.39243C55.5533 8.9581 54.7968 8.5254 54.09 8.09107C53.4229 7.68113 52.7895 7.22404 52.138 6.81655C51.5479 6.44748 50.8375 6.35538 49.9444 6.16506C48.8952 6.1374 48.0704 6.08372 47.397 6.00239C46.8846 5.97473 46.0257 5.97473 45.1407 5.97473" stroke="#202020" stroke-linecap="round"/>
<path d="M44.3405 7.46954C44.2367 7.57339 44.1053 7.73074 43.507 8.7708C42.9729 9.69928 42.026 11.4725 41.5051 12.4468C40.7252 13.9059 40.4336 14.5486 40.3156 14.8637C40.2846 14.9464 40.2243 15.0206 40.2106 15.0218C40.1332 15.0284 40.3274 14.787 41.2113 13.8771C42.0184 13.0462 43.5491 11.4614 44.3771 10.5937C45.4489 9.47046 45.807 9.15001 46.1618 8.86049C46.3693 8.69122 46.5426 8.51905 46.6996 8.40143C46.8698 8.27387 46.3915 8.93051 45.5006 10.1881C44.9929 10.9047 44.6835 11.4528 43.7587 12.924C43.0213 14.0971 41.8214 16.1866 41.1798 17.2955C40.5382 18.4044 40.5123 18.4823 41.7061 17.0166C42.9 15.5509 45.3145 12.5393 46.5973 10.9489C48.0782 9.11281 48.2994 8.80857 48.5224 8.49348C48.7643 8.15173 48.9815 7.94237 49.1125 7.87629C49.2376 7.81318 49.0106 8.4624 47.5276 10.7526C46.2717 12.692 43.9157 16.1583 42.673 18.0413C41.4304 19.9244 41.3525 20.1061 41.1956 20.4204C40.8155 21.1814 40.5382 21.7087 40.46 21.9046C40.4121 22.0244 40.3298 22.1783 41.9123 20.4283C43.4948 18.6782 46.7401 15.0175 48.4638 13.0538C50.31 10.9506 50.4763 10.6959 50.6203 10.539C50.9304 10.2009 51.3142 9.54495 51.6037 9.10989C51.752 8.88698 51.9192 8.72911 51.9974 8.58513C52.0377 8.51108 52.1276 8.46712 51.1812 10.1149C50.2348 11.7628 48.2616 15.1119 47.1802 16.98C45.9424 19.1185 45.7834 19.5837 45.6398 19.9365C45.3142 20.7368 44.9982 21.39 44.8 21.9439C44.6472 22.3709 44.5506 22.6528 44.5762 22.6799C44.6257 22.7325 44.7575 22.4474 45.8369 21.1595C46.9163 19.8716 48.9414 17.4831 50.0365 16.1748C51.2512 14.7236 51.4723 14.4204 51.8507 13.99C53.0011 12.6817 53.2291 12.1396 53.4659 11.7978C53.6815 11.4865 54.041 10.9611 54.3443 10.4607C54.4758 10.2437 54.5941 10.0666 54.6204 9.98749C54.6208 9.98631 54.5948 10.0642 53.504 11.6491C52.4132 13.234 50.2584 16.3235 49.0834 18.0578C47.7346 20.0487 47.541 20.5278 47.3187 20.8936C46.8455 21.6726 46.6504 22.2822 46.4521 22.7963C46.2897 23.2175 46.0462 23.6747 45.8491 24.1204C45.8034 24.2238 45.7834 24.3041 45.796 24.3053C46.3735 24.3594 47.065 23.0241 48.4713 21.5261C49.5755 20.35 51.5392 18.3926 52.5942 17.3112C53.9608 15.9104 54.2518 15.5226 54.6448 15.0379C55.5 13.9833 55.6428 13.3716 55.8784 12.9912C55.9345 12.9006 55.9575 12.8209 55.9319 12.8197C55.9063 12.8186 55.8284 12.8964 55.0354 13.988C54.2424 15.0796 52.7366 17.1826 51.844 18.4736C50.3414 20.6471 50.1372 21.0517 49.9271 21.3936C49.8284 21.5543 49.743 21.7087 49.6907 21.8656C49.6644 21.9447 49.6384 22.0226 51.027 20.492C52.4156 18.9614 55.2195 15.82 56.6899 14.1627C58.1603 12.5054 58.2122 12.4276 58.1871 12.5302C58.1619 12.6329 58.058 12.9185 57.7579 13.5459C57.4578 14.1733 56.9645 15.1339 56.269 16.3298C55.5735 17.5256 54.6908 18.9276 54.2231 19.6887C53.7134 20.5182 53.5729 20.7638 53.3502 21.0388C53.1963 21.2288 53.8789 20.6151 55.4477 19.1506C57.1799 17.5335 58.265 16.7011 58.396 16.6743C58.4535 16.6626 58.475 16.8034 58.047 17.7526C57.619 18.7018 56.7363 20.4932 56.2037 21.5328C55.1685 23.5535 54.5421 24.5409 54.5028 24.594C54.486 24.6166 54.4894 24.4394 54.8788 23.6586C55.2683 22.8778 56.0472 21.4498 56.4873 20.6623C57.2594 19.281 57.767 18.4846 57.7028 18.4705C57.2295 18.3659 56.4098 19.5011 55.1546 20.6906C53.7532 22.0187 52.9435 22.9147 52.617 23.2019C52.4151 23.3795 52.1607 23.6448 52.0269 23.7137C51.8932 23.7825 51.8932 23.6527 51.9062 23.5079C51.9192 23.3632 51.9451 23.2074 52.4648 22.1406C52.9844 21.0738 53.9969 19.1006 54.8171 17.6298C55.6373 16.159 56.2344 15.2504 56.568 14.7303C57.2038 13.739 57.505 13.0562 57.4924 12.9511C57.4868 12.9043 57.35 12.9499 56.0633 14.2484C54.7766 15.547 52.3102 18.1172 50.9747 19.4932C49.329 21.1888 48.7242 21.6276 48.2754 21.9447C48.1978 21.9995 48.1184 22.0493 48.1043 22.0112C48.0901 21.973 48.142 21.8432 48.8827 20.7898C49.6235 19.7363 51.0514 17.7632 51.8389 16.6948C52.9464 15.1924 53.4383 14.5785 53.7149 14.2237C54.017 13.8361 54.1999 13.4503 54.2798 13.2131C54.3208 13.091 53.9662 13.4739 52.6662 14.6827C51.4874 15.7787 49.2891 17.8906 48.1263 19.0129C46.5917 20.4941 45.9935 20.9746 45.8884 21.0014C45.5506 21.0874 46.1492 20.3468 46.7735 19.4236C47.3252 18.6078 48.3324 17.0724 49.0098 16.0886C49.9695 14.6948 50.6313 13.8468 51.1423 13.0739C51.427 12.6432 51.5517 12.4268 51.5785 12.3607C51.6435 12.2001 51.2386 12.7131 49.9 14.0911C48.6766 15.3504 46.3026 17.7018 45.0596 18.9578C43.5302 20.5032 43.0833 20.9479 42.7549 21.2236C42.7051 21.2654 42.819 20.9762 43.9751 18.9755C45.0732 17.0752 47.2341 13.3921 48.3572 11.454C49.4803 9.51584 49.5062 9.43796 49.2859 9.63149C49.0657 9.82503 48.5983 10.2924 48.0071 10.9225C46.699 12.3168 45.9407 13.2119 45.901 13.317C45.9132 13.3441 45.9911 13.3181 46.0702 13.2918C46.1492 13.2654 46.2271 13.2395 46.3074 13.2127" stroke="#202020" stroke-linecap="round"/>
</svg>
